<svg width="382" height="382" viewBox="0 0 382 382" fill="none" xmlns="http://www.w3.org/2000/svg">
<g opacity="0.5">
<path d="M332.993 172.535L332.506 172.266C294.231 150.517 199.674 141.391 121.636 151.891L121.262 151.943V151.569C121.366 95.0651 135.772 51.6364 158.85 38.2389C168.836 32.4362 180.084 32.7494 191.384 39.1089C227.693 34.2806 262.149 44.3548 288.585 67.5306C302.639 79.9074 313.753 95.2643 321.119 112.482C329.062 130.751 333.063 150.76 333.028 172.022L332.993 172.535ZM189.792 146.889C248.196 146.889 304.618 155.928 332.341 171.422C332.341 150.464 328.322 130.708 320.493 112.699C313.155 95.5714 302.095 80.2932 288.116 67.9743C261.836 44.9463 227.476 34.9156 191.358 39.7961H191.253L191.158 39.7352C179.849 33.3323 169.115 33.0104 159.172 38.7783C136.354 52.0539 122.088 95.0998 121.914 151.195C144.421 148.274 167.096 146.836 189.792 146.889V146.889Z" fill="white"/>
<path d="M262.55 50.8708C243.291 39.9267 195.62 35.342 156.301 40.6139L156.214 39.9702C195.655 34.6634 243.499 39.3003 262.872 50.3054L262.55 50.8708Z" fill="white"/>
<path d="M313.282 98.4318C280.278 79.7102 198.63 71.7935 131.274 80.8498L131.188 80.2061C198.656 71.1323 280.496 79.0577 313.604 97.8664L313.282 98.4318Z" fill="white"/>
<path d="M278.608 154.666H277.956C278.051 102.147 262.793 60.5622 237.132 43.4151C223.448 34.2805 207.651 32.9755 191.445 39.77L191.158 39.1697C207.581 32.3318 223.587 33.6106 237.462 42.8758C263.359 60.1359 278.704 101.929 278.608 154.666Z" fill="white"/>
<path d="M202.884 147.341H202.231C202.362 73.3942 198.473 34.1239 194.55 33.6194C194.167 33.5672 193.089 34.0369 191.636 39.5525L191.001 39.3872C192.201 34.8373 193.358 32.7929 194.637 32.9669C200.474 33.7325 202.988 90.9588 202.884 147.341Z" fill="white"/>
<path d="M49.7306 210.631L49.2434 210.361C37.265 203.55 31.7064 195.946 33.1678 188.377C34.551 181.279 41.9972 174.519 54.3584 168.594C66.7631 119.85 99.819 77.483 142.357 55.0118C147.167 47.5039 152.7 41.8057 158.885 38.2388C168.897 32.4187 180.18 32.7493 191.514 39.1871L192.384 39.6656L191.419 39.7961C174.435 42.1439 157.998 47.4653 142.861 55.5163C129.743 76.091 122.053 110.324 121.984 151.569V151.856H121.705C93.3383 155.667 70.3818 161.687 54.9934 168.969C51.5787 182.394 49.8258 196.187 49.7741 210.04L49.7306 210.631ZM54.1583 169.369C42.2843 175.128 35.1425 181.653 33.8115 188.508C32.4197 195.676 37.7 202.932 49.0868 209.518C49.1728 195.98 50.8753 182.502 54.1583 169.369V169.369ZM141.669 56.1166C99.9146 78.5443 67.4503 120.268 55.1152 168.238C70.521 161.017 93.2861 155.066 121.227 151.282C121.375 110.69 128.873 76.8653 141.669 56.1166ZM173.855 34.6981C168.68 34.7306 163.608 36.1549 159.172 38.8217C153.37 42.1972 148.124 47.5213 143.514 54.4811C158.138 46.8164 173.952 41.678 190.288 39.2828C185.269 36.3994 179.607 34.8229 173.821 34.6981H173.855Z" fill="white"/>
<path d="M119.687 70.0883C113.598 66.6084 110.745 62.7197 111.502 58.8309C113.085 50.6968 130.213 43.4674 156.214 39.9701L156.301 40.6139C130.587 44.0937 113.676 51.0535 112.145 58.9527C111.45 62.5457 114.172 66.1996 119.975 69.5141L119.687 70.0883Z" fill="white"/>
<path d="M68.7553 131.325C58.3862 125.436 53.5844 118.859 54.837 112.299C57.5163 98.4753 86.7621 86.2001 131.17 80.2061L131.257 80.8498C87.1535 86.783 58.1165 98.8494 55.4546 112.421C54.2455 118.676 58.9342 125.018 69.0424 130.751L68.7553 131.325Z" fill="white"/>
<path d="M59.9171 166.568H59.2646C59.3429 123.069 75.7143 84.5733 104.168 60.9624C128.317 40.9532 159.285 33.1844 191.375 39.1524L191.262 39.7961C159.363 33.863 128.586 41.5361 104.586 61.4583C76.2797 84.9299 59.9954 123.261 59.9171 166.568Z" fill="white"/>
<path d="M34.0206 187.586H33.3682C33.4378 148.159 49.1828 111.107 77.7327 83.2682C107.831 53.8808 148.194 38.2388 191.358 39.1696V39.8221C148.264 38.8217 108.118 54.481 78.1502 83.7119C49.7656 111.429 34.0902 148.307 34.0206 187.586Z" fill="white"/>
<path d="M192.28 235.164C133.527 235.164 76.8103 226.021 49.2434 210.361L49.0781 210.266V210.074C49.2347 126.349 113.024 49.6701 191.271 39.1522H191.384L191.479 39.2044C229.868 61.0145 260.966 146.828 260.81 230.501V230.788H260.532C237.902 233.75 215.102 235.212 192.28 235.164V235.164ZM49.7305 209.883C88.0058 231.519 182.293 240.619 260.157 230.197C260.244 146.897 229.363 61.5799 191.253 39.8134C113.424 50.34 49.9828 126.584 49.7305 209.883Z" fill="white"/>
<path d="M191.923 82.6157C162.26 82.6157 133.64 77.9962 119.722 70.0882L120.044 69.514C139.303 80.4582 186.965 85.0603 226.293 79.7709L226.38 80.4147C214.956 81.9104 203.445 82.6456 191.923 82.6157V82.6157Z" fill="white"/>
<path d="M192.262 152.787C141.53 152.787 92.5554 144.888 68.7378 131.369L69.0596 130.795C102.063 149.551 183.711 157.442 251.067 148.377L251.154 149.029C231.628 151.577 211.954 152.832 192.262 152.787V152.787Z" fill="white"/>
<path d="M104.169 227.387H103.516C103.629 143.705 142.974 59.2659 191.158 39.1697L191.41 39.7699C143.453 59.7792 104.273 143.94 104.169 227.387Z" fill="white"/>
<path d="M179.849 234.712H179.197C179.345 151.126 184.642 63.5027 191.001 39.3872L191.636 39.5525C185.286 63.6244 179.997 151.169 179.849 234.712Z" fill="white"/>
<path d="M260.157 230.858V230.484C260.314 147.019 229.363 61.4408 191.157 39.7526L190.288 39.2741L191.244 39.1523C227.554 34.2718 262.097 44.3721 288.525 67.4871C302.578 79.8639 313.692 95.2207 321.058 112.438C328.974 130.638 332.985 150.604 332.967 171.787C344.833 178.573 350.365 186.142 348.878 193.676C345.781 209.666 311.916 223.89 260.505 230.806L260.157 230.858ZM192.314 39.6917C230.259 62.2238 260.871 147.176 260.81 230.127C311.725 223.237 345.189 209.248 348.26 193.589C349.669 186.316 344.224 178.956 332.506 172.301L332.341 172.205V172.013C332.341 150.847 328.392 130.908 320.493 112.734C313.155 95.6062 302.095 80.3279 288.116 68.0091C262.071 45.1464 228.076 35.1157 192.314 39.6917Z" fill="white"/>
<path d="M226.345 80.4148L226.258 79.771C251.972 76.2912 268.883 69.3314 270.414 61.4322C271.109 57.8479 268.395 54.194 262.584 50.8708L262.906 50.3053C268.996 53.7852 271.849 57.6652 271.092 61.5627C269.448 69.6968 252.346 76.9175 226.345 80.4148Z" fill="white"/>
<path d="M251.18 148.985L251.093 148.333C295.214 142.4 324.251 130.307 326.878 116.762C328.087 110.507 323.399 104.173 313.291 98.4317L313.612 97.8662C323.982 103.756 328.783 110.333 327.531 116.892C324.825 130.716 295.545 143.009 251.18 148.985Z" fill="white"/>
<path d="M322.807 215.486H322.154C322.311 132.065 263.593 53.2544 191.262 39.796L191.375 39.1522C264.002 52.6628 322.963 131.769 322.807 215.486Z" fill="white"/>
<path d="M348.704 194.493H348.051C348.208 111.107 277.894 41.71 191.314 39.796V39.1436C278.26 41.0662 348.86 110.75 348.704 194.493Z" fill="white"/>
<path d="M190.688 342.91L190.592 342.857C152.213 321.047 121.105 235.234 121.262 151.569V151.282H121.549C199.7 140.764 294.483 149.942 332.828 171.726L332.994 171.822V172.013C332.837 255.73 269.048 332.409 190.801 342.927L190.688 342.91ZM121.914 151.856C121.836 235.147 152.708 320.464 190.818 342.231C268.648 331.696 332.08 255.443 332.341 172.17C294.04 150.534 199.778 141.478 121.914 151.856Z" fill="white"/>
<path d="M312.995 251.293C279.991 232.546 198.343 224.655 130.987 233.711L130.9 233.068C198.378 223.994 280.209 231.919 313.325 250.728L312.995 251.293Z" fill="white"/>
<path d="M262.063 312.53C242.803 301.586 195.142 296.984 155.814 302.273L155.727 301.63C195.168 296.323 243.021 300.96 262.385 311.965L262.063 312.53Z" fill="white"/>
<path d="M190.88 342.875L190.627 342.274C238.628 322.265 277.799 238.105 277.956 154.666H278.608C278.452 238.348 239.098 322.778 190.88 342.875Z" fill="white"/>
<path d="M191.071 342.657L190.444 342.492C196.786 318.42 202.075 230.875 202.231 147.341H202.884C202.727 230.927 197.43 318.542 191.071 342.657Z" fill="white"/>
<path d="M172.994 344.101C143.305 344.101 115.581 333.897 93.521 314.522C79.4678 302.146 68.3531 286.789 60.987 269.571C53.071 251.38 49.0695 231.415 49.0782 210.231C37.2129 203.445 31.6804 195.877 33.1679 188.343C36.2734 172.353 70.1383 158.12 121.549 151.212L121.914 151.16V151.534C121.758 234.99 152.717 320.551 190.914 342.257L191.784 342.735L190.827 342.857C184.917 343.671 178.96 344.087 172.994 344.101V344.101ZM121.262 151.917C70.3471 158.807 36.8823 172.796 33.8116 188.456C32.4024 195.729 37.8479 203.089 49.5653 209.744L49.7306 209.839V210.031C49.7306 231.197 53.6799 251.137 61.5873 269.302C68.9163 286.43 79.9711 301.709 93.9472 314.027C120.001 336.854 153.97 346.885 189.766 342.327C151.821 319.821 121.201 234.886 121.262 151.917Z" fill="white"/>
<path d="M68.5031 284.152C58.1427 278.271 53.3322 271.685 54.5848 265.135C57.2641 251.311 86.5185 239.036 130.918 233.042L131.005 233.685C86.8839 239.618 57.8469 251.72 55.2285 265.256C54.0107 271.511 58.7081 277.853 68.8075 283.587L68.5031 284.152Z" fill="white"/>
<path d="M119.209 331.739C113.12 328.259 110.266 324.379 111.014 320.49C112.598 312.348 129.726 305.127 155.727 301.63L155.814 302.273C130.1 305.753 113.189 312.756 111.658 320.612C110.962 324.205 113.685 327.85 119.487 331.174L119.209 331.739Z" fill="white"/>
<path d="M190.696 342.892C118.087 329.39 59.1079 250.276 59.2645 166.568H59.9169C59.7603 249.98 118.478 328.79 190.818 342.248L190.696 342.892Z" fill="white"/>
<path d="M190.749 342.901C103.812 340.978 33.2114 271.294 33.3679 187.56H34.0204C33.8638 270.946 104.177 340.334 190.766 342.248L190.749 342.901Z" fill="white"/>
<path d="M208.269 347.938C202.071 347.818 196.012 346.085 190.688 342.91C184.823 343.701 178.912 344.099 172.994 344.101C143.305 344.101 115.582 333.897 93.5211 314.523C79.468 302.146 68.3533 286.789 60.9872 269.571C53.0451 251.302 49.0436 231.293 49.0783 210.04V209.483L49.5568 209.753C87.832 231.502 182.398 240.628 260.436 230.127L260.801 230.075V230.449C260.697 286.953 246.3 330.373 223.222 343.771C218.7 346.472 213.536 347.911 208.269 347.938V347.938ZM190.819 342.231L190.914 342.292C202.223 348.695 212.957 349.017 222.9 343.249C245.726 329.991 259.992 286.945 260.158 230.858C182.407 241.245 88.3279 232.189 49.7308 210.631C49.7308 231.589 53.7497 251.337 61.5874 269.345C68.9165 286.473 79.9712 301.752 93.9474 314.07C120.227 337.098 154.596 347.129 190.714 342.248L190.819 342.231Z" fill="white"/>
<path d="M191.975 305.605C141.243 305.605 92.2683 297.706 68.4507 284.178L68.7725 283.613C101.776 302.369 183.424 310.26 250.789 301.195L250.876 301.847C231.346 304.394 211.67 305.65 191.975 305.605V305.605Z" fill="white"/>
<path d="M191.436 344.275C161.773 344.275 133.153 339.656 119.235 331.739L119.557 331.174C138.816 342.118 186.478 346.72 225.797 341.431L225.884 342.074C214.462 343.57 202.955 344.305 191.436 344.275Z" fill="white"/>
<path d="M170.411 347.207C161.187 347.182 152.185 344.381 144.575 339.169C118.739 321.908 103.368 280.124 103.473 227.387H104.169C104.064 279.907 119.331 321.491 144.984 338.629C158.667 347.764 174.465 349.025 190.671 342.274L190.923 342.875C184.441 345.666 177.468 347.138 170.411 347.207Z" fill="white"/>
<path d="M187.583 349.086H187.444C181.598 348.321 179.093 291.094 179.197 234.721H179.849C179.71 308.668 183.607 347.929 187.522 348.442C187.905 348.442 188.983 348.016 190.445 342.501L191.071 342.666C189.914 347.033 188.809 349.086 187.583 349.086Z" fill="white"/>
<path d="M208.268 347.938C202.51 347.938 196.56 346.241 190.592 342.857L189.722 342.379L190.679 342.248C207.664 339.896 224.103 334.575 239.245 326.528C252.354 305.953 260.044 271.72 260.123 230.484V230.214H260.41C288.768 226.404 311.733 220.383 327.113 213.102C330.528 199.677 332.281 185.883 332.332 172.031V171.474L332.819 171.744C344.815 178.503 350.348 186.107 348.904 193.676C347.529 200.774 340.083 207.534 327.722 213.45C315.343 262.168 282.261 304.561 239.715 327.033C234.904 334.54 229.372 340.239 223.23 343.806C218.702 346.496 213.535 347.923 208.268 347.938V347.938ZM191.74 342.762C202.71 348.712 213.183 348.851 222.874 343.249C228.676 339.873 233.93 334.549 238.532 327.633C223.905 335.27 208.095 340.385 191.766 342.762H191.74ZM260.784 230.771C260.671 271.363 253.181 305.179 240.385 325.928C282.14 303.5 314.595 261.785 326.93 213.815C311.551 221.036 288.785 226.987 260.81 230.771H260.784ZM332.985 172.544C332.896 186.079 331.19 199.554 327.905 212.684C339.779 206.925 346.929 200.4 348.251 193.545C349.652 186.385 344.372 179.121 332.993 172.544H332.985Z" fill="white"/>
<path d="M250.893 301.847L250.806 301.195C294.918 295.262 323.955 283.169 326.582 269.624C327.792 263.369 323.103 257.035 312.995 251.294L313.325 250.728C323.686 256.618 328.496 263.195 327.244 269.754C324.538 283.578 295.292 295.871 250.893 301.847Z" fill="white"/>
<path d="M225.858 342.074L225.771 341.43C251.494 337.951 268.396 330.991 269.927 323.092C270.623 319.507 267.909 315.853 262.098 312.53L262.42 311.965C268.509 315.445 271.362 319.325 270.605 323.222C268.996 331.356 251.859 338.577 225.858 342.074Z" fill="white"/>
<path d="M211.67 344.858C204.633 344.848 197.613 344.19 190.697 342.892L190.819 342.248C222.717 348.19 253.494 340.508 277.495 320.586C305.801 297.097 322.077 258.819 322.155 215.486H322.807C322.729 258.984 306.366 297.48 277.903 321.082C259.32 336.571 235.861 344.992 211.67 344.858V344.858Z" fill="white"/>
<path d="M194.463 342.936C193.228 342.936 191.993 342.936 190.749 342.936V342.283C233.757 343.231 273.937 327.633 303.913 298.367C332.289 270.65 347.965 233.772 348.034 194.528H348.687C348.617 233.955 332.872 270.998 304.366 298.837C275.155 327.346 236.236 342.936 194.463 342.936Z" fill="white"/>
<path d="M191.21 349.13C187.643 349.13 184.599 348.991 183.007 348.921C180.728 348.817 175.491 348.416 171.959 347.964C168.427 347.512 168.48 347.512 163.521 346.703C162.59 346.555 161.494 346.337 160.424 346.12L159.024 345.841C152.63 344.513 146.323 342.796 140.138 340.7C136.537 339.421 132.309 337.794 129.343 336.568C126.847 335.524 123.584 334.027 121.244 332.844C117.626 331.008 113.067 328.494 109.936 326.65C106.804 324.806 103.272 322.518 100.915 320.812C94.1864 316.123 87.8263 310.926 81.8905 305.266C79.0721 302.569 75.8883 299.298 73.7657 296.923C71.2343 294.096 67.6765 289.868 65.1103 286.484C59.9901 279.742 55.4145 272.603 51.4269 265.135C47.7453 257.859 44.4809 250.38 41.6493 242.733C40.1129 238.457 38.8091 234.101 37.7435 229.684C37.1085 227.187 36.5082 224.133 35.9254 221.193C35.6645 219.862 35.4122 218.583 35.1686 217.408C34.3067 212.862 33.74 208.265 33.4723 203.645L33.4288 202.949C33.0158 197.906 32.8735 192.844 33.0026 187.786C33.0635 186.768 33.1157 185.655 33.1679 184.506C33.3157 181.357 33.4897 177.781 33.7855 174.937C34.2063 170.304 34.88 165.698 35.8036 161.139C36.0124 160.269 36.2212 159.26 36.4473 158.251C37.1172 155.171 37.8827 151.691 38.6482 148.968C39.8312 144.775 41.5449 139.477 42.9281 135.779C44.3112 132.082 46.1727 127.628 47.6603 124.47C48.765 122.121 51.6183 116.214 54.1932 111.934C58.1512 105.339 63.9185 97.2312 67.6504 92.2898C69.6511 89.6799 72.487 86.5655 74.9923 83.8512C75.8622 82.9812 76.619 82.1112 77.341 81.2413C79.9538 78.433 82.7184 75.7698 85.6223 73.2637C89.4325 69.9491 94.6779 65.8342 98.288 63.0329C101.664 60.479 105.187 58.126 108.84 55.9862C113.502 53.2458 119.957 49.792 124.889 47.3996C127.803 45.9816 132.257 44.1372 136.807 42.4669C140.33 41.1619 144.958 39.6743 148.307 38.7608C153.771 37.2176 159.315 35.9689 164.913 35.02C167.879 34.4806 173.795 33.6889 178.17 33.3497C181.276 33.1148 183.711 32.9669 185.416 32.9234C190.166 32.8016 190.636 32.7929 195.698 32.9234C196.368 32.9234 202.449 33.0713 210.147 34.0108C214.671 34.5589 218.437 35.2375 218.594 35.2723C220.012 35.5333 222.013 35.9074 223.518 36.2205C224.622 36.4554 225.979 36.7686 227.232 37.0905L228.746 37.4385C230.372 37.8126 232.625 38.4216 235.435 39.2393C236.984 39.7004 239.123 40.379 241.959 41.3185C245.639 42.5278 249.884 44.1546 252.772 45.4596C254.912 46.4252 257.278 47.5475 259.618 48.7045C262.79 50.1487 265.899 51.7349 268.943 53.4633L269.135 53.5764C273.879 56.2816 278.481 59.2289 282.923 62.4065C286.002 64.738 290.647 68.2614 293.927 71.0279C295.153 72.0631 299.39 75.6822 302.382 78.8576L302.947 79.4491C305.705 82.3461 309.141 85.9478 311.646 88.8448C313.812 91.3677 316.761 95.1172 318.988 98.1708C321.215 101.224 324.208 105.774 326.443 109.367C328.809 113.247 331.01 117.197 332.315 119.963C333.898 123.313 336.299 128.367 337.856 132.195C339.031 135.092 340.579 139.433 341.997 143.809C344.281 150.985 346.025 158.322 347.216 165.758C348.475 174.21 349.146 182.739 349.226 191.283C349.226 195.459 348.947 201.105 348.582 205.324C348.33 208.239 347.799 211.884 347.329 215.103C347.19 216.086 347.051 217.034 346.929 217.904C346.184 222.443 345.205 226.941 343.998 231.38C343.128 234.79 341.684 239.436 340.353 243.22C339.022 247.005 337.073 251.92 335.255 255.956C334.229 258.253 332.837 260.941 331.497 263.551C330.906 264.7 330.332 265.805 329.827 266.814C327.607 270.922 325.165 274.907 322.511 278.75C321.137 280.829 319.345 283.23 317.614 285.553C316.874 286.544 316.17 287.493 315.535 288.371C312.551 292.233 309.357 295.928 305.966 299.437C303.304 302.282 300.077 305.458 297.754 307.528C294.362 310.547 289.482 314.575 285.323 317.802C282.47 320.021 278.564 322.596 276.494 323.936C274.058 325.502 270.788 327.415 268.152 328.938L267.351 329.399C262.088 332.403 256.621 335.034 250.989 337.272C246.178 339.151 242.525 340.482 239.828 341.361C236.444 342.457 231.799 343.771 228.25 344.632C224.562 345.502 220.229 346.433 217.211 346.929L216.802 346.99C215.297 347.242 213.427 347.538 211.983 347.72C209.373 348.051 206.015 348.399 203.936 348.59C203.762 348.59 199.439 349.017 193.219 349.112L191.21 349.13ZM190.766 33.6019C189.287 33.6019 187.974 33.6019 185.399 33.6976C183.703 33.7411 181.276 33.889 178.188 34.1239C173.838 34.4632 167.94 35.2462 164.991 35.7856C159.421 36.7375 153.904 37.9803 148.463 39.509C145.123 40.379 140.521 41.9014 137.007 43.1977C132.483 44.868 128.047 46.6775 125.159 48.1043C120.235 50.4967 113.807 53.933 109.153 56.6647C105.524 58.7744 102.024 61.0985 98.6707 63.6245C95.0607 66.4258 89.8326 70.532 86.0312 73.8379C83.1476 76.3267 80.4033 78.9725 77.8107 81.7632L75.4533 84.3731C72.9567 87.07 70.1383 90.1323 68.1549 92.7596C64.4318 97.6923 58.6818 105.809 54.7325 112.343C52.175 116.605 49.3304 122.495 48.2344 124.827C46.7556 127.941 44.9114 132.352 43.5196 136.058C42.1277 139.764 40.4315 145.018 39.2571 149.194C38.5003 151.9 37.7348 155.38 37.065 158.442C36.8475 159.451 36.63 160.434 36.4213 161.33C35.5054 165.867 34.8346 170.45 34.4118 175.058C34.1247 177.86 33.9508 181.418 33.8029 184.558C33.7507 185.715 33.6985 186.829 33.6376 187.847C33.5102 192.879 33.6496 197.915 34.0551 202.932L34.0986 203.628C34.3708 208.218 34.9374 212.786 35.7949 217.304C36.0385 218.47 36.2908 219.757 36.5517 221.088C37.1259 224.029 37.7261 227.065 38.3611 229.544C39.4187 233.935 40.7139 238.265 42.2408 242.516C44.7548 249.092 48.4867 258.305 51.9836 264.839C55.9503 272.285 60.5118 279.398 65.6235 286.11C68.1288 289.459 71.7128 293.67 74.2355 296.488C76.3406 298.846 79.5157 302.108 82.3168 304.796C88.236 310.428 94.5724 315.605 101.272 320.282C103.62 321.969 107.143 324.258 110.249 326.084C113.355 327.911 117.948 330.434 121.558 332.261C123.889 333.444 127.125 334.932 129.613 335.967C132.553 337.185 136.781 338.803 140.373 340.082C146.527 342.175 152.801 343.892 159.163 345.224L160.572 345.502C161.634 345.711 162.73 345.928 163.643 346.076C168.558 346.885 168.558 346.885 172.055 347.338C175.552 347.79 180.754 348.208 183.033 348.286C184.929 348.364 188.844 348.538 193.245 348.477C199.439 348.382 203.736 347.981 203.91 347.964C205.981 347.764 209.33 347.425 211.939 347.094C213.366 346.911 215.236 346.607 216.732 346.363L217.141 346.302C220.142 345.807 224.457 344.91 228.137 344.014C231.66 343.144 236.296 341.848 239.663 340.752C242.342 339.882 245.987 338.551 250.789 336.681C256.388 334.45 261.827 331.834 267.064 328.851L267.856 328.39C270.466 326.867 273.754 324.962 276.181 323.405C277.834 322.326 282.018 319.594 284.958 317.315C289.107 314.096 293.97 310.068 297.354 307.067C299.668 305.005 302.878 301.847 305.522 299.02C308.887 295.529 312.052 291.852 315.004 288.006C315.639 287.136 316.353 286.179 317.092 285.196C318.832 282.873 320.571 280.472 321.963 278.41C324.575 274.588 326.983 270.63 329.175 266.553C329.679 265.544 330.253 264.43 330.845 263.282C332.185 260.672 333.568 258.01 334.585 255.73C336.404 251.659 338.396 246.683 339.674 243.046C340.953 239.41 342.423 234.59 343.293 231.249C344.496 226.837 345.472 222.365 346.216 217.852C346.338 216.982 346.477 216.025 346.616 215.051C347.086 211.841 347.608 208.195 347.86 205.298C348.225 201.096 348.478 195.476 348.504 191.309C348.42 182.782 347.743 174.27 346.477 165.837C345.308 158.437 343.586 151.135 341.327 143.992C339.909 139.642 338.369 135.292 337.195 132.421C335.647 128.611 333.255 123.565 331.671 120.242C330.375 117.51 328.192 113.569 325.826 109.707C323.642 106.122 320.658 101.642 318.414 98.5536C316.17 95.4652 313.256 91.7765 311.098 89.271C308.619 86.3828 305.192 82.7898 302.443 79.9015L301.878 79.3099C298.902 76.1868 294.692 72.5938 293.474 71.5585C290.204 68.8095 285.567 65.2861 282.496 62.9633C278.069 59.8024 273.484 56.8669 268.761 54.1679L268.587 54.0722C265.977 52.6977 262.68 50.9839 259.314 49.3309C238.584 39.8744 215.332 36.5772 191.462 39.7613H191.393L191.306 39.1175C209.98 36.4846 229.008 38.0872 246.979 43.8066C245.239 43.1455 243.421 42.5017 241.759 41.9449C238.923 41.0053 236.792 40.3268 235.252 39.8744C232.451 39.0566 230.216 38.4564 228.598 38.0823L227.084 37.7343C225.84 37.4472 224.475 37.1253 223.378 36.8643C221.882 36.5424 219.899 36.1683 218.481 35.9161C218.316 35.9161 214.575 35.2027 210.069 34.6546C202.405 33.7237 196.351 33.5845 195.681 33.5758C193.35 33.6019 192.028 33.6019 190.766 33.6019Z" fill="white"/>
<path d="M332.994 172.536L332.507 172.266C294.232 150.517 199.674 141.391 121.636 151.891L121.262 151.944V151.569C121.367 95.0652 135.772 51.6365 158.85 38.239C168.837 32.4363 180.084 32.7495 191.384 39.109C227.694 34.2807 262.15 44.3549 288.586 67.5308C302.639 79.9076 313.754 95.2644 321.12 112.482C329.062 130.751 333.063 150.76 333.029 172.022L332.994 172.536ZM189.792 146.889C248.197 146.889 304.618 155.928 332.341 171.422C332.341 150.465 328.323 130.708 320.494 112.699C313.156 95.5716 302.096 80.2933 288.116 67.9744C261.837 44.9465 227.476 34.9158 191.358 39.7963H191.254L191.158 39.7354C179.849 33.3324 169.115 33.0105 159.172 38.7784C136.355 52.0541 122.089 95.1 121.915 151.195C144.422 148.275 167.097 146.836 189.792 146.889V146.889Z" fill="white"/>
<path d="M262.55 50.871C243.291 39.9268 195.62 35.3421 156.301 40.6141L156.214 39.9703C195.655 34.6635 243.499 39.3004 262.872 50.3055L262.55 50.871Z" fill="white"/>
<path d="M313.282 98.432C280.278 79.7103 198.63 71.7936 131.274 80.85L131.187 80.2062C198.656 71.1324 280.495 79.0578 313.603 97.8665L313.282 98.432Z" fill="white"/>
<path d="M278.608 154.666H277.956C278.051 102.147 262.793 60.5623 237.132 43.4153C223.448 34.2806 207.651 32.9757 191.445 39.7701L191.158 39.1698C207.581 32.3319 223.587 33.6108 237.462 42.8759C263.359 60.136 278.704 101.929 278.608 154.666Z" fill="white"/>
<path d="M202.884 147.341H202.231C202.362 73.3943 198.473 34.1241 194.55 33.6195C194.167 33.5673 193.089 34.0371 191.636 39.5526L191.001 39.3874C192.201 34.8374 193.358 32.793 194.637 32.967C200.474 33.7326 202.988 90.9589 202.884 147.341Z" fill="white"/>
<path d="M49.7306 210.631L49.2434 210.362C37.265 203.55 31.7064 195.946 33.1678 188.378C34.551 181.279 41.9972 174.519 54.3584 168.595C66.7631 119.85 99.819 77.4831 142.357 55.0119C147.167 47.5041 152.7 41.8058 158.885 38.2389C168.897 32.4189 180.18 32.7495 191.514 39.1872L192.384 39.6657L191.419 39.7962C174.435 42.144 157.998 47.4654 142.861 55.5165C129.743 76.0911 122.053 110.324 121.984 151.569V151.856H121.705C93.3383 155.667 70.3818 161.687 54.9934 168.969C51.5787 182.394 49.8258 196.187 49.7741 210.04L49.7306 210.631ZM54.1583 169.369C42.2843 175.128 35.1425 181.653 33.8115 188.508C32.4197 195.677 37.7 202.932 49.0868 209.518C49.1728 195.981 50.8753 182.502 54.1583 169.369V169.369ZM141.669 56.1167C99.9147 78.5444 67.4503 120.268 55.1152 168.238C70.521 161.017 93.2861 155.067 121.227 151.282C121.375 110.69 128.873 76.8654 141.669 56.1167ZM173.855 34.6982C168.68 34.7307 163.608 36.155 159.172 38.8218C153.37 42.1973 148.124 47.5215 143.514 54.4812C158.138 46.8165 173.952 41.6781 190.288 39.2829C185.269 36.3995 179.607 34.823 173.821 34.6982H173.855Z" fill="white"/>
<path d="M119.687 70.0884C113.598 66.6086 110.745 62.7198 111.502 58.8311C113.085 50.6969 130.213 43.4675 156.214 39.9702L156.301 40.614C130.587 44.0938 113.676 51.0536 112.145 58.9529C111.45 62.5458 114.172 66.1997 119.975 69.5142L119.687 70.0884Z" fill="white"/>
<path d="M68.7553 131.325C58.3862 125.436 53.5844 118.859 54.837 112.299C57.5163 98.4755 86.7621 86.2002 131.17 80.2062L131.257 80.8499C87.1535 86.7831 58.1165 98.8495 55.4546 112.421C54.2455 118.676 58.9342 125.018 69.0424 130.751L68.7553 131.325Z" fill="white"/>
<path d="M59.9171 166.568H59.2646C59.3429 123.069 75.7143 84.5734 104.168 60.9625C128.317 40.9533 159.285 33.1845 191.375 39.1525L191.262 39.7963C159.363 33.8631 128.586 41.5362 104.586 61.4584C76.2797 84.9301 59.9954 123.261 59.9171 166.568Z" fill="white"/>
<path d="M34.0206 187.586H33.3682C33.4378 148.159 49.1828 111.107 77.7327 83.2683C107.831 53.8809 148.194 38.2389 191.358 39.1698V39.8222C148.264 38.8218 108.118 54.4812 78.1502 83.712C49.7656 111.429 34.0902 148.307 34.0206 187.586Z" fill="white"/>
<path d="M192.28 235.164C133.527 235.164 76.8103 226.021 49.2434 210.362L49.0781 210.266V210.075C49.2347 126.349 113.024 49.6702 191.271 39.1523H191.384L191.479 39.2045C229.868 61.0146 260.966 146.828 260.81 230.501V230.788H260.532C237.902 233.751 215.102 235.212 192.28 235.164V235.164ZM49.7305 209.883C88.0058 231.519 182.293 240.619 260.157 230.197C260.244 146.898 229.363 61.5801 191.253 39.8135C113.424 50.3401 49.9828 126.584 49.7305 209.883Z" fill="white"/>
<path d="M191.923 82.6158C162.26 82.6158 133.64 77.9963 119.722 70.0883L120.044 69.5142C139.303 80.4583 186.965 85.0604 226.293 79.7711L226.38 80.4148C214.956 81.9105 203.445 82.6458 191.923 82.6158V82.6158Z" fill="white"/>
<path d="M192.262 152.787C141.53 152.787 92.5554 144.888 68.7378 131.369L69.0596 130.795C102.063 149.551 183.711 157.442 251.067 148.377L251.154 149.029C231.628 151.577 211.954 152.832 192.262 152.787V152.787Z" fill="white"/>
<path d="M104.169 227.387H103.516C103.629 143.705 142.974 59.266 191.158 39.1698L191.41 39.7701C143.453 59.7793 104.273 143.94 104.169 227.387Z" fill="white"/>
<path d="M179.849 234.712H179.197C179.345 151.126 184.642 63.5028 191.001 39.3873L191.636 39.5526C185.286 63.6246 179.997 151.169 179.849 234.712Z" fill="white"/>
<path d="M260.157 230.858V230.484C260.314 147.019 229.363 61.4409 191.157 39.7527L190.288 39.2742L191.244 39.1524C227.554 34.2719 262.097 44.3722 288.525 67.4872C302.578 79.864 313.692 95.2208 321.058 112.438C328.974 130.638 332.985 150.604 332.967 171.787C344.833 178.573 350.365 186.142 348.878 193.676C345.781 209.666 311.916 223.89 260.505 230.806L260.157 230.858ZM192.314 39.6918C230.259 62.2239 260.871 147.176 260.81 230.127C311.725 223.237 345.189 209.248 348.26 193.589C349.669 186.316 344.224 178.956 332.506 172.301L332.341 172.205V172.014C332.341 150.847 328.392 130.908 320.493 112.734C313.155 95.6063 302.095 80.3281 288.116 68.0092C262.071 45.1465 228.076 35.1158 192.314 39.6918Z" fill="white"/>
<path d="M226.345 80.4149L226.258 79.7712C251.972 76.2913 268.883 69.3316 270.414 61.4323C271.109 57.848 268.395 54.1942 262.584 50.8709L262.906 50.3054C268.996 53.7853 271.849 57.6653 271.092 61.5628C269.448 69.697 252.346 76.9177 226.345 80.4149Z" fill="white"/>
<path d="M251.18 148.986L251.093 148.333C295.214 142.4 324.251 130.307 326.878 116.762C328.087 110.507 323.399 104.174 313.291 98.4318L313.612 97.8663C323.982 103.756 328.783 110.333 327.531 116.892C324.825 130.716 295.545 143.009 251.18 148.986Z" fill="white"/>
<path d="M322.807 215.486H322.154C322.311 132.065 263.593 53.2545 191.262 39.7961L191.375 39.1523C264.002 52.6629 322.963 131.769 322.807 215.486Z" fill="white"/>
<path d="M348.704 194.493H348.052C348.208 111.107 277.895 41.7101 191.314 39.7962V39.1437C278.26 41.0663 348.861 110.751 348.704 194.493Z" fill="white"/>
<path d="M190.688 342.91L190.592 342.857C152.213 321.047 121.105 235.234 121.262 151.569V151.282H121.549C199.7 140.764 294.483 149.943 332.828 171.727L332.994 171.822V172.014C332.837 255.73 269.048 332.409 190.801 342.927L190.688 342.91ZM121.914 151.856C121.836 235.147 152.708 320.465 190.818 342.231C268.648 331.696 332.08 255.443 332.341 172.17C294.04 150.534 199.778 141.478 121.914 151.856Z" fill="white"/>
<path d="M312.995 251.293C279.991 232.546 198.343 224.655 130.987 233.711L130.9 233.068C198.378 223.994 280.209 231.919 313.325 250.728L312.995 251.293Z" fill="white"/>
<path d="M262.063 312.53C242.803 301.586 195.142 296.984 155.814 302.273L155.727 301.63C195.168 296.323 243.021 300.96 262.385 311.965L262.063 312.53Z" fill="white"/>
<path d="M190.88 342.875L190.627 342.275C238.628 322.265 277.799 238.105 277.956 154.667H278.608C278.452 238.348 239.098 322.779 190.88 342.875Z" fill="white"/>
<path d="M191.071 342.657L190.444 342.492C196.786 318.42 202.075 230.875 202.231 147.341H202.884C202.727 230.928 197.43 318.542 191.071 342.657Z" fill="white"/>
<path d="M172.994 344.101C143.305 344.101 115.581 333.897 93.521 314.523C79.4678 302.146 68.3531 286.789 60.987 269.571C53.071 251.38 49.0695 231.415 49.0782 210.231C37.2129 203.445 31.6804 195.877 33.1679 188.343C36.2734 172.353 70.1383 158.12 121.549 151.213L121.914 151.16V151.534C121.758 234.99 152.717 320.551 190.914 342.257L191.784 342.736L190.827 342.857C184.917 343.671 178.96 344.087 172.994 344.101V344.101ZM121.262 151.917C70.3471 158.807 36.8823 172.796 33.8116 188.456C32.4024 195.729 37.8479 203.089 49.5653 209.744L49.7306 209.84V210.031C49.7306 231.197 53.6799 251.137 61.5873 269.302C68.9163 286.43 79.9711 301.709 93.9472 314.027C120.001 336.855 153.97 346.885 189.766 342.327C151.821 319.821 121.201 234.886 121.262 151.917Z" fill="white"/>
<path d="M68.5031 284.152C58.1427 278.271 53.3322 271.686 54.5848 265.135C57.2641 251.311 86.5185 239.036 130.918 233.042L131.005 233.685C86.8839 239.619 57.8469 251.72 55.2285 265.256C54.0107 271.511 58.7081 277.854 68.8075 283.587L68.5031 284.152Z" fill="white"/>
<path d="M119.209 331.739C113.12 328.259 110.266 324.379 111.014 320.491C112.598 312.348 129.726 305.127 155.727 301.63L155.814 302.274C130.1 305.753 113.189 312.757 111.658 320.612C110.962 324.205 113.685 327.85 119.487 331.174L119.209 331.739Z" fill="white"/>
<path d="M190.696 342.892C118.087 329.39 59.1079 250.276 59.2645 166.568H59.9169C59.7603 249.98 118.478 328.79 190.818 342.248L190.696 342.892Z" fill="white"/>
<path d="M190.749 342.901C103.812 340.978 33.2114 271.294 33.3679 187.56H34.0204C33.8638 270.946 104.177 340.335 190.766 342.249L190.749 342.901Z" fill="white"/>
<path d="M208.269 347.938C202.071 347.818 196.012 346.085 190.688 342.91C184.823 343.701 178.912 344.099 172.994 344.101C143.305 344.101 115.582 333.897 93.5211 314.523C79.468 302.146 68.3533 286.789 60.9872 269.572C53.0451 251.302 49.0436 231.293 49.0783 210.04V209.483L49.5568 209.753C87.832 231.502 182.398 240.628 260.436 230.127L260.801 230.075V230.449C260.697 286.953 246.3 330.373 223.222 343.771C218.7 346.472 213.536 347.911 208.269 347.938V347.938ZM190.819 342.231L190.914 342.292C202.223 348.695 212.957 349.017 222.9 343.249C245.726 329.991 259.992 286.945 260.158 230.858C182.407 241.245 88.3279 232.189 49.7308 210.631C49.7308 231.589 53.7497 251.337 61.5874 269.345C68.9165 286.474 79.9712 301.752 93.9474 314.07C120.227 337.098 154.596 347.129 190.714 342.248L190.819 342.231Z" fill="white"/>
<path d="M191.975 305.605C141.243 305.605 92.2683 297.706 68.4507 284.178L68.7725 283.613C101.776 302.369 183.424 310.26 250.789 301.195L250.876 301.847C231.346 304.395 211.67 305.65 191.975 305.605V305.605Z" fill="white"/>
<path d="M191.436 344.276C161.773 344.276 133.153 339.656 119.235 331.739L119.557 331.174C138.816 342.118 186.478 346.72 225.797 341.431L225.884 342.075C214.462 343.57 202.955 344.305 191.436 344.276Z" fill="white"/>
<path d="M170.411 347.207C161.187 347.182 152.185 344.381 144.575 339.169C118.739 321.909 103.368 280.124 103.473 227.387H104.169C104.064 279.907 119.331 321.491 144.984 338.629C158.667 347.764 174.465 349.025 190.671 342.274L190.923 342.875C184.441 345.666 177.468 347.138 170.411 347.207Z" fill="white"/>
<path d="M187.582 349.086H187.443C181.597 348.321 179.092 291.094 179.196 234.721H179.849C179.71 308.668 183.607 347.929 187.521 348.443C187.904 348.443 188.983 348.016 190.444 342.501L191.071 342.666C189.914 347.033 188.809 349.086 187.582 349.086Z" fill="white"/>
<path d="M208.268 347.938C202.51 347.938 196.56 346.242 190.592 342.857L189.722 342.379L190.679 342.248C207.664 339.897 224.103 334.575 239.245 326.528C252.354 305.953 260.044 271.72 260.123 230.484V230.214H260.41C288.768 226.404 311.733 220.384 327.113 213.102C330.528 199.677 332.281 185.883 332.332 172.031V171.474L332.819 171.744C344.815 178.503 350.348 186.107 348.904 193.676C347.529 200.775 340.083 207.534 327.722 213.45C315.343 262.168 282.261 304.561 239.715 327.033C234.904 334.54 229.372 340.239 223.23 343.806C218.702 346.496 213.535 347.923 208.268 347.938V347.938ZM191.74 342.762C202.71 348.712 213.183 348.851 222.874 343.249C228.676 339.873 233.93 334.549 238.532 327.633C223.905 335.271 208.095 340.385 191.766 342.762H191.74ZM260.784 230.771C260.671 271.364 253.181 305.179 240.385 325.928C282.139 303.5 314.595 261.785 326.93 213.815C311.551 221.036 288.785 226.987 260.81 230.771H260.784ZM332.985 172.544C332.896 186.079 331.19 199.554 327.905 212.684C339.779 206.925 346.929 200.4 348.251 193.545C349.652 186.385 344.372 179.121 332.993 172.544H332.985Z" fill="white"/>
<path d="M250.893 301.847L250.806 301.195C294.918 295.262 323.955 283.169 326.582 269.624C327.792 263.369 323.103 257.035 312.995 251.294L313.325 250.728C323.686 256.618 328.496 263.195 327.244 269.754C324.538 283.578 295.292 295.871 250.893 301.847Z" fill="white"/>
<path d="M225.858 342.074L225.771 341.431C251.494 337.951 268.396 330.991 269.927 323.092C270.623 319.507 267.909 315.854 262.098 312.53L262.42 311.965C268.509 315.445 271.362 319.325 270.605 323.222C268.996 331.356 251.859 338.577 225.858 342.074Z" fill="white"/>
<path d="M211.67 344.858C204.633 344.848 197.613 344.19 190.697 342.892L190.819 342.248C222.717 348.19 253.494 340.508 277.495 320.586C305.801 297.097 322.077 258.819 322.155 215.486H322.807C322.729 258.984 306.366 297.48 277.903 321.082C259.32 336.571 235.861 344.992 211.67 344.858V344.858Z" fill="white"/>
<path d="M194.463 342.936C193.228 342.936 191.993 342.936 190.749 342.936V342.283C233.756 343.232 273.937 327.633 303.913 298.367C332.289 270.65 347.965 233.772 348.034 194.528H348.687C348.617 233.955 332.872 270.998 304.366 298.837C275.155 327.346 236.236 342.936 194.463 342.936Z" fill="white"/>
<path d="M191.002 349.13H189.819C187.661 349.086 184.912 349.008 182.99 348.93C178.841 348.756 174.23 348.234 172.021 347.981C168.732 347.607 163.983 346.798 163.67 346.737C159.833 346.024 157.093 345.511 153.796 344.676C151.848 344.188 149.63 343.623 147.968 343.144C145.785 342.518 143.305 341.787 141.461 341.143L140.47 340.787C138.269 340.021 135.537 339.047 133.51 338.246C129.944 336.846 127.308 335.724 125.438 334.819C122.585 333.427 117.191 330.765 113.198 328.546C109.719 326.598 106.239 324.51 104.082 322.952C103.29 322.387 102.403 321.778 101.472 321.152C99.2889 319.638 97.0272 318.081 95.2352 316.671C93.6259 315.41 88.0412 310.99 83.8396 307.102C81.6301 305.057 78.1418 301.691 75.5931 298.915C73.3226 296.445 69.0863 291.738 66.1982 287.919C60.9058 281.128 56.1781 273.915 52.0625 266.353C48.2998 259.128 44.9709 251.685 42.0935 244.064C40.5134 239.734 39.1661 235.323 38.0572 230.849C37.3961 228.379 36.7785 225.351 36.1782 222.428C35.9086 221.088 35.6389 219.818 35.3866 218.618C34.4869 214.056 33.8796 209.442 33.5686 204.802C33.2206 200.079 32.9857 194.572 32.9771 190.77C32.9771 187.951 33.1684 184.41 33.3424 181.287C33.412 180.087 33.4729 178.938 33.5251 177.886C33.8296 172.684 34.5158 167.511 35.578 162.409L36.1261 159.869C36.7959 156.667 37.5614 153.039 38.3356 150.203C39.4317 146.149 41.0757 140.93 42.4241 137.215C43.7202 133.639 45.5731 129.081 47.0519 125.905C48.0871 123.652 50.7576 117.954 53.2107 113.769C56.9513 107.366 62.5012 99.3191 66.4418 93.9253C69.2041 90.332 72.1451 86.8796 75.2538 83.5814C78.5333 80.0073 81.9973 76.6069 85.6316 73.3941C87.9107 71.4367 95.8789 64.6945 102.655 60.1011C105.961 57.8565 110.963 54.6812 115.086 52.4976L115.799 52.1148C118.079 50.9055 120.923 49.4005 123.15 48.3478C125.377 47.2952 129.7 45.3029 132.989 44.0502L134.215 43.5717C135.694 43.0062 137.364 42.3538 138.721 41.9101C141.653 40.9444 146.55 39.3002 150.204 38.3693C156.731 36.6244 163.361 35.2878 170.055 34.3675L170.098 34.6894L170.055 34.3675C174.074 33.8281 178.475 33.4018 181.833 33.2278C184.799 33.0712 185.904 33.0103 188.879 32.9668C191.854 32.9233 194.881 32.9668 195.708 33.0277C197.796 33.0973 199.77 33.1669 202.667 33.3844C205.564 33.6019 207.077 33.7585 210.104 34.1065C212.714 34.4197 213.071 34.4719 218.395 35.3418C219.421 35.5071 220.648 35.7507 221.735 35.9682L222.935 36.2031C225.771 36.7512 231.121 38.0648 234.148 38.9522C238.272 40.1527 243.543 41.9014 247.284 43.302C250.415 44.4765 254.112 46.025 256.705 47.2517C260.184 48.9046 265.116 51.4188 268.953 53.5241C270.449 54.3941 271.928 55.264 273.372 56.134C275.016 57.1171 276.616 58.1001 277.965 59.0223C282.523 62.1629 287.829 66.0777 291.483 69.0008C296.928 73.3506 303.592 80.1364 308.133 84.8516C311.617 88.5112 314.837 92.4126 317.771 96.5265L319.267 98.6753C321.425 101.746 323.86 105.235 325.652 108.088C327.817 111.501 329.809 115.02 331.62 118.632L332.368 120.181C333.994 123.556 336.013 127.767 337.378 131.055C338.744 134.344 340.44 138.972 341.615 142.626C342.789 146.28 344.285 151.708 345.242 155.832C346.243 160.182 347.182 165.924 347.547 168.212C348.663 175.851 349.21 183.563 349.183 191.283C348.979 199.817 348.276 208.331 347.078 216.782C346.444 221.318 345.502 225.806 344.259 230.214C343.929 231.328 343.572 232.58 343.207 233.868C342.389 236.721 341.545 239.679 340.71 242.089C339.301 246.363 337.66 250.556 335.795 254.651C335.325 255.626 334.821 256.705 334.29 257.818C333.072 260.428 331.681 263.316 330.471 265.57C328.471 269.258 325.713 273.913 323.608 277.14C321.503 280.368 318.789 284.196 316.727 286.866C315.57 288.354 311.508 293.53 308.028 297.306C304.697 300.89 301.939 303.665 299.956 305.562C296.615 308.694 292.509 312.269 289.517 314.67C287.177 316.541 283.663 319.212 280.818 321.117C277.086 323.64 272.023 326.746 268.535 328.807C262.877 331.977 257.038 334.815 251.05 337.307C248.963 338.125 243.639 340.187 239.42 341.544C236.123 342.605 231.478 343.901 227.859 344.78C224.24 345.659 219.908 346.52 216.855 347.033C210.983 347.981 208.808 348.181 204.05 348.625C202.98 348.721 199.048 349.051 193.289 349.147L191.002 349.13ZM190.784 33.6019H188.844C185.878 33.6454 184.782 33.7063 181.833 33.8629C178.475 34.0369 174.1 34.4632 170.098 34.9938C163.433 35.9118 156.833 37.2454 150.334 38.987C146.715 39.9353 141.809 41.5447 138.878 42.4669C137.538 42.9105 135.877 43.5543 134.406 44.1198L133.18 44.5983C129.909 45.8423 125.638 47.8171 123.385 48.8785C121.132 49.9399 118.34 51.4275 116.06 52.6281L115.347 53.0108C111.1 55.3217 106.971 57.8449 102.977 60.5708C96.2269 65.1556 88.2848 71.8804 86.0144 73.8204C82.3982 77.0135 78.9543 80.3966 75.6975 83.9555C72.6 87.2359 69.6706 90.6708 66.9202 94.2472C62.9883 99.6236 57.4645 107.645 53.7327 114.03C51.297 118.189 48.6264 123.861 47.5999 126.114C46.1298 129.298 44.2856 133.839 42.9895 137.424C41.6934 141.008 40.0145 146.323 38.9184 150.36C38.1529 153.179 37.3874 156.798 36.7176 159.982C36.5262 160.852 36.3522 161.722 36.1782 162.531C35.1148 167.597 34.4314 172.735 34.134 177.903C34.0818 178.956 34.0209 180.104 33.9513 181.305C33.7773 184.419 33.586 187.951 33.586 190.744C33.586 194.537 33.8295 200.026 34.1775 204.733C34.4868 209.342 35.0883 213.928 35.9782 218.461C36.2391 219.635 36.5001 220.932 36.7785 222.28C37.37 225.194 37.9876 228.205 38.64 230.667C39.7486 235.116 41.099 239.501 42.685 243.803C45.5507 251.398 48.868 258.815 52.6192 266.013C56.7206 273.548 61.4308 280.734 66.7028 287.501C69.5734 291.294 73.7924 295.992 76.0541 298.446C78.5855 301.203 82.0651 304.535 84.2659 306.597C88.4414 310.468 94.0174 314.879 95.5745 316.167C97.3578 317.567 99.6021 319.116 101.786 320.621L104.395 322.431C107.316 324.431 110.335 326.284 113.442 327.981C117.426 330.191 122.802 332.853 125.621 334.236C127.473 335.106 130.101 336.254 133.641 337.655C135.694 338.455 138.417 339.395 140.6 340.187L141.6 340.534C143.427 341.178 145.898 341.9 148.072 342.527C149.725 342.997 151.935 343.562 153.875 344.049C157.154 344.876 159.886 345.389 163.67 346.102C164.026 346.172 168.741 346.972 172.012 347.338C174.221 347.59 178.814 348.112 182.938 348.286C184.86 348.364 187.6 348.442 189.758 348.486C190.862 348.486 192.367 348.486 193.15 348.486C198.892 348.39 202.806 348.068 203.867 347.964C208.617 347.529 210.774 347.32 216.629 346.381C219.673 345.885 223.971 345.006 227.581 344.136C231.191 343.266 235.818 341.97 239.098 340.917C243.3 339.56 248.606 337.507 250.694 336.689C256.652 334.214 262.461 331.393 268.091 328.242C271.571 326.18 276.616 323.083 280.34 320.569C283.149 318.672 286.646 316.01 288.986 314.148C291.979 311.765 296.067 308.198 299.425 305.075C301.434 303.196 304.14 300.429 307.463 296.854C310.942 293.121 314.979 287.971 316.162 286.484C318.215 283.874 320.964 279.933 323.008 276.801C325.052 273.669 327.853 268.971 329.845 265.274C331.054 263.038 332.455 260.124 333.647 257.557L335.16 254.39C337.012 250.314 338.644 246.141 340.049 241.889C340.875 239.497 341.71 236.547 342.528 233.703C342.894 232.415 343.25 231.162 343.581 230.04C344.813 225.671 345.749 221.225 346.382 216.73C347.572 208.304 348.272 199.816 348.478 191.309C348.508 183.624 347.964 175.947 346.852 168.342C346.486 166.072 345.547 160.312 344.555 156.015C343.598 151.9 342.145 146.619 340.945 142.861C339.744 139.103 338.083 134.588 336.726 131.334C335.369 128.08 333.351 123.87 331.724 120.494L330.985 118.946C329.18 115.369 327.197 111.884 325.043 108.506C323.26 105.661 320.833 102.181 318.684 99.119L317.179 96.9702C314.27 92.8821 311.072 89.0067 307.611 85.3736C303.079 80.667 296.433 73.9161 291.022 69.575L289.682 68.5223C316.423 92.3768 332.081 127.932 332.951 168.081C332.951 169.282 332.994 170.474 332.994 171.683V171.979C332.838 255.695 269.048 332.374 190.802 342.892L190.715 342.248C268.648 331.809 332.185 255.382 332.342 171.979V171.683C332.342 122.617 310.264 80.0581 272.989 56.6995L271.432 55.7773C270.423 55.177 269.457 54.6029 268.587 54.0374C264.768 51.9495 259.888 49.4353 256.409 47.791C253.799 46.5731 250.146 45.0245 247.04 43.8588C243.317 42.4495 238.054 40.7008 233.992 39.509C230.973 38.639 225.658 37.3341 222.84 36.786L221.604 36.5685C220.526 36.3597 219.308 36.1161 218.334 35.9595C212.984 35.0895 212.662 35.0286 210.026 34.7242C207.008 34.3675 205.598 34.2196 202.615 34.0021C199.631 33.7846 197.769 33.715 195.656 33.6367C195.003 33.6019 192.985 33.6019 190.784 33.6019Z" fill="white"/>
<path d="M190.688 343.745L190.592 343.693C152.013 321.761 120.697 235.478 120.879 151.352V151.047H121.166C199.752 140.477 295.049 149.699 333.611 171.605L333.777 171.7V171.892C333.62 256.052 269.448 333.149 190.801 343.727L190.688 343.745ZM121.566 151.639C121.488 235.391 152.535 321.178 190.853 343.031C269.144 332.444 332.907 255.783 333.15 172.031C294.614 150.308 199.857 141.156 121.566 151.639Z" fill="white"/>
<path d="M262.489 313.2C243.125 302.195 195.194 297.541 155.657 302.882L155.57 302.239C195.229 296.906 243.342 301.569 262.811 312.626L262.489 313.2Z" fill="white"/>
<path d="M313.673 251.624C280.487 232.772 198.387 224.838 130.657 233.946L130.57 233.303C198.421 224.177 280.705 232.145 313.995 251.059L313.673 251.624Z" fill="white"/>
<path d="M190.879 343.71L190.627 343.11C238.889 322.987 278.277 238.366 278.434 154.466H279.086C278.93 238.609 239.358 323.501 190.879 343.71Z" fill="white"/>
<path d="M191.071 343.492L190.436 343.327C196.821 319.125 202.136 231.102 202.292 147.098H202.945C202.788 231.145 197.464 319.246 191.071 343.492Z" fill="white"/>
<path d="M172.89 344.945C143.035 344.945 115.164 334.68 92.973 315.236C78.8376 302.781 67.6628 287.325 60.265 269.998C52.3055 251.728 48.2779 231.624 48.2953 210.327C36.3604 203.498 30.8279 195.894 32.2893 188.325C35.447 172.283 69.4685 158.007 121.166 151.047L121.532 150.995V151.369C121.375 235.286 152.5 321.317 190.914 343.144L191.784 343.623L190.827 343.745C184.881 344.544 178.889 344.945 172.89 344.945V344.945ZM120.87 151.726C69.6685 158.686 35.9863 172.736 32.933 188.491C31.5151 195.798 36.9954 203.202 48.7824 209.892L48.9477 209.987V210.205C48.9042 231.484 52.9144 251.537 60.8565 269.806C68.2285 287.03 79.3489 302.393 93.4079 314.775C119.6 337.725 153.787 347.834 189.757 343.231C151.604 320.551 120.818 235.13 120.879 151.726H120.87Z" fill="white"/>
<path d="M118.809 332.513C112.667 329.034 109.823 325.11 110.58 321.204C112.163 313.026 129.387 305.762 155.536 302.247L155.623 302.891C129.761 306.371 112.754 313.435 111.258 321.334C110.553 324.945 113.294 328.616 119.165 331.957L118.809 332.513Z" fill="white"/>
<path d="M67.798 284.691C57.3593 278.776 52.5401 272.164 53.8189 265.552C56.5155 251.633 85.9179 239.288 130.569 233.285L130.656 233.929C86.2919 239.897 57.0984 252.059 54.4539 265.674C53.236 271.964 57.9334 278.341 68.1199 284.109L67.798 284.691Z" fill="white"/>
<path d="M190.697 343.727C117.626 330.138 58.3862 250.641 58.5428 166.437H59.1952C59.0386 250.31 118.078 329.556 190.81 343.084L190.697 343.727Z" fill="white"/>
<path d="M190.749 343.736C103.298 341.805 32.3412 271.738 32.4978 187.534H33.1502C32.9937 271.372 103.698 341.152 190.757 343.075L190.749 343.736Z" fill="white"/>
<path d="M208.364 348.808C202.132 348.684 196.04 346.939 190.688 343.745C154.222 348.625 119.531 338.525 92.9817 315.236C78.8464 302.781 67.6716 287.325 60.2738 269.998C52.2882 251.65 48.2606 231.502 48.3041 210.135V209.579L48.7912 209.848C87.2404 231.702 182.363 240.889 260.819 230.336L261.193 230.284V230.658C261.088 287.467 246.605 331.13 223.405 344.623C218.856 347.34 213.662 348.785 208.364 348.808ZM190.818 343.066L190.914 343.127C202.223 349.565 213.079 349.895 223.1 344.084C246.057 330.756 260.401 287.467 260.566 231.075C182.381 241.515 87.7885 232.407 48.9826 210.736C48.9826 231.806 53.0189 251.668 60.8914 269.78C68.2634 287.004 79.3838 302.366 93.4428 314.749C119.87 337.907 154.422 347.973 190.74 343.084L190.818 343.066Z" fill="white"/>
<path d="M191.436 345.111C161.616 345.111 132.814 340.474 118.809 332.513L119.13 331.948C138.494 342.953 186.425 347.607 225.962 342.257L226.049 342.91C214.572 344.404 203.009 345.139 191.436 345.111V345.111Z" fill="white"/>
<path d="M191.975 306.232C140.974 306.232 91.7291 298.289 67.7983 284.691L68.1202 284.126C101.307 302.987 183.398 310.912 251.137 301.804L251.215 302.447C231.574 305.014 211.784 306.278 191.975 306.232V306.232Z" fill="white"/>
<path d="M170.28 348.068C161.007 348.043 151.957 345.226 144.305 339.986C118.322 322.631 102.873 280.611 102.968 227.587H103.621C103.525 280.394 118.87 322.204 144.671 339.438C158.424 348.634 174.317 349.878 190.61 343.11L190.862 343.71C184.358 346.512 177.362 347.994 170.28 348.068Z" fill="white"/>
<path d="M187.565 349.956H187.417C181.545 349.191 179.023 291.669 179.127 234.955H179.78C179.64 309.338 183.564 348.782 187.504 349.295C187.922 349.373 188.983 348.86 190.436 343.327L191.071 343.492C189.914 347.886 188.792 349.956 187.565 349.956Z" fill="white"/>
<path d="M208.364 348.808C202.57 348.808 196.586 347.068 190.592 343.693L189.722 343.214L190.688 343.084C207.766 340.724 224.294 335.373 239.515 327.276C252.702 306.589 260.436 272.173 260.514 230.71V230.423H260.792C289.316 226.586 312.429 220.54 327.878 213.215C331.302 199.715 333.055 185.845 333.098 171.918V171.361L333.585 171.631C345.633 178.477 351.218 186.124 349.748 193.728C348.364 200.87 340.875 207.647 328.444 213.624C316.004 262.629 282.731 305.231 239.958 327.824C235.122 335.376 229.52 341.1 223.378 344.693C218.831 347.381 213.646 348.802 208.364 348.808V348.808ZM191.766 343.588C202.797 349.574 213.331 349.739 223.083 344.075C228.92 340.691 234.2 335.376 238.828 328.372C224.113 336.069 208.201 341.217 191.766 343.597V343.588ZM261.193 230.98C261.079 271.799 253.546 305.797 240.68 326.676C282.661 304.118 315.308 262.168 327.67 213.937C312.212 221.201 289.325 227.187 261.193 230.989V230.98ZM333.768 172.431C333.683 186.042 331.968 199.594 328.661 212.798C340.614 207.012 347.799 200.444 349.13 193.554C350.53 186.359 345.215 179.06 333.768 172.44V172.431Z" fill="white"/>
<path d="M226.049 342.91L225.962 342.257C251.824 338.777 268.839 331.722 270.37 323.823C271.066 320.212 268.326 316.541 262.454 313.2L262.776 312.626C268.917 316.106 271.762 320.03 271.005 323.936C269.448 332.122 252.198 339.386 226.049 342.91Z" fill="white"/>
<path d="M251.18 302.421L251.102 301.778C295.467 295.81 324.651 283.647 327.296 270.033C328.514 263.743 323.816 257.366 313.639 251.598L313.96 251.032C324.399 256.957 329.21 263.569 327.94 270.172C325.278 284.082 295.867 296.445 251.18 302.421Z" fill="white"/>
<path d="M211.783 345.702C204.709 345.693 197.65 345.032 190.697 343.727L190.81 343.083C222.883 349.051 253.834 341.344 277.964 321.334C306.427 297.715 322.799 259.201 322.886 215.651H323.538C323.451 259.393 307.01 298.098 278.382 321.787C259.697 337.364 236.108 345.834 211.783 345.702Z" fill="white"/>
<path d="M194.481 343.771C193.237 343.771 191.993 343.771 190.749 343.771V343.118C234.026 344.067 274.407 328.39 304.54 298.959C333.081 271.12 348.843 234.016 348.904 194.563H349.557C349.487 234.199 333.655 271.442 304.992 299.437C275.616 328.094 236.488 343.771 194.481 343.771Z" fill="white"/>
<path d="M333.768 172.431L333.28 172.161C294.831 150.308 199.717 141.121 121.253 151.674L120.879 151.726V151.352C120.983 94.5344 135.467 50.8708 158.676 37.3864C168.714 31.5576 180.023 31.8708 191.384 38.2563C227.841 33.3845 262.541 43.4761 289.09 66.7651C303.223 79.2226 314.397 94.6777 321.798 112.003C329.784 130.351 333.811 150.491 333.776 171.866L333.768 172.431ZM189.783 146.645C248.518 146.645 305.226 155.736 333.124 171.318C333.124 150.238 329.079 130.377 321.206 112.273C313.834 95.0467 302.714 79.6814 288.655 67.2958C262.228 44.1373 227.693 34.0805 191.366 38.961H191.253L191.157 38.9088C179.849 32.4623 168.993 32.1405 158.971 37.9431C136.05 51.2884 121.705 94.5779 121.566 150.978C144.186 148.041 166.974 146.594 189.783 146.645V146.645Z" fill="white"/>
<path d="M313.961 97.9272C280.757 79.0664 198.665 71.141 130.944 80.2495L130.857 79.5971C198.709 70.4711 280.983 78.44 314.282 97.3531L313.961 97.9272Z" fill="white"/>
<path d="M262.941 50.1314C243.577 39.1263 195.655 34.472 156.109 39.8223L156.022 39.1785C195.681 33.8456 243.795 38.4999 263.263 49.5659L262.941 50.1314Z" fill="white"/>
<path d="M279.086 154.466H278.434C278.53 101.659 263.185 59.8402 237.384 42.6062C223.631 33.4106 207.746 32.1666 191.445 38.9436L191.192 38.3346C207.72 31.4532 223.796 32.7494 237.749 42.0581C263.733 59.4226 279.182 101.459 279.086 154.466Z" fill="white"/>
<path d="M202.945 147.098H202.292C202.466 72.7504 198.508 33.2627 194.568 32.732C194.176 32.6711 193.097 33.1583 191.636 38.6999L191.001 38.5347C192.21 33.9673 193.384 31.9229 194.655 32.0795C200.526 32.8625 203.049 90.4107 202.945 147.098Z" fill="white"/>
<path d="M48.9563 210.736L48.4691 210.466C36.4124 203.619 30.8277 195.972 32.2978 188.369C33.6896 181.226 41.1707 174.449 53.6015 168.473C66.0409 119.459 99.3143 76.8566 142.096 54.2636C146.932 46.7123 152.534 40.9879 158.676 37.395C168.74 31.5488 180.084 31.8794 191.479 38.3519L192.349 38.8304L191.392 38.9609C174.303 41.3163 157.762 46.6673 142.531 54.7682C129.343 75.456 121.653 109.872 121.531 151.334V151.621H121.253C92.7292 155.458 69.6249 161.504 54.1756 168.829C50.752 182.33 48.9991 196.199 48.9563 210.127V210.736ZM53.4101 169.247C41.4665 175.032 34.2725 181.6 32.9415 188.491C31.541 195.694 36.856 202.993 48.3038 209.613C48.3888 196.002 50.1031 182.45 53.4101 169.247V169.247ZM141.4 55.3511C99.41 77.9702 66.7629 119.876 54.367 168.116C69.8598 160.852 92.7466 154.866 120.879 151.065C120.992 110.237 128.525 76.2302 141.4 55.3511ZM173.76 33.8368C168.55 33.8553 163.442 35.2767 158.972 37.9518C153.135 41.3446 147.854 46.6514 143.226 53.6111C157.948 45.9423 173.859 40.8157 190.288 38.4476C184.628 35.3796 179.118 33.8426 173.76 33.8368Z" fill="white"/>
<path d="M68.0767 131.038C57.638 125.114 52.8275 118.502 54.1062 111.899C56.7942 97.9794 86.2052 85.6346 130.857 79.6318L130.944 80.2843C86.5793 86.2436 57.3857 98.4144 54.7413 112.029C53.5234 118.319 58.2208 124.687 68.3986 130.455L68.0767 131.038Z" fill="white"/>
<path d="M119.296 69.4184C113.154 65.9386 110.31 62.015 111.066 58.1089C112.65 49.9312 129.882 42.667 156.022 39.1523L156.109 39.7961C130.248 43.276 113.241 50.3401 111.745 58.2307C111.04 61.841 113.78 65.521 119.652 68.8617L119.296 69.4184Z" fill="white"/>
<path d="M59.1949 166.437H58.5425C58.6208 122.686 75.0704 83.9816 103.699 60.249C127.977 40.1006 159.119 32.3144 191.375 38.3171L191.262 38.9609C159.189 32.993 128.238 40.7009 104.107 60.7101C75.6446 84.3644 59.2732 122.887 59.1949 166.437Z" fill="white"/>
<path d="M33.1505 187.586H32.498C32.5763 147.95 48.3997 110.698 77.0713 82.7029C107.335 53.124 147.907 37.4038 191.323 38.3346V38.9871C148.072 38.0301 107.674 53.7156 77.5411 83.1465C48.9825 111.029 33.2288 148.072 33.1505 187.586Z" fill="white"/>
<path d="M192.289 235.434C133.214 235.434 76.184 226.212 48.4954 210.466L48.3301 210.37V210.205C48.4954 125.992 112.598 48.8959 191.279 38.3171H191.384L191.48 38.3693C230.077 60.3012 261.349 146.593 261.193 230.719V231.006H260.906C238.156 233.994 215.234 235.474 192.289 235.434V235.434ZM48.9564 209.987C87.4665 231.737 182.241 240.897 260.54 230.414C260.627 146.663 229.581 60.8667 191.253 39.0218C112.998 49.5658 49.2 126.227 48.9564 209.987Z" fill="white"/>
<path d="M192.262 152.526C141.261 152.526 92.0161 144.592 68.0767 130.995L68.3985 130.42C101.559 149.307 183.685 157.215 251.415 148.098L251.502 148.751C231.86 151.314 212.071 152.575 192.262 152.526V152.526Z" fill="white"/>
<path d="M191.923 82.0156C162.103 82.0156 133.301 77.37 119.296 69.4185L119.618 68.853C138.99 79.8494 186.913 84.5124 226.458 79.1621L226.545 79.8059C215.066 81.3071 203.5 82.0453 191.923 82.0156V82.0156Z" fill="white"/>
<path d="M103.638 227.604H102.985C103.142 143.461 142.713 58.5612 191.192 38.3519L191.445 38.9609C143.183 59.0571 103.794 143.679 103.638 227.604Z" fill="white"/>
<path d="M179.779 234.956H179.127C179.284 150.908 184.616 62.8067 191.001 38.5608L191.636 38.7261C185.251 62.9198 179.936 150.952 179.779 234.956Z" fill="white"/>
<path d="M260.54 231.084V230.71C260.697 146.785 229.572 60.7537 191.157 38.935L190.288 38.4565L191.253 38.326C227.789 33.4194 262.489 43.5458 289.064 66.8174C303.197 79.2749 314.371 94.73 321.772 112.056C329.731 130.325 333.759 150.43 333.75 171.727C345.685 178.547 351.218 186.159 349.748 193.728C346.625 209.814 312.577 224.116 260.879 231.067L260.54 231.084ZM192.314 38.8219C230.468 61.441 261.253 146.906 261.193 230.31C312.394 223.35 346.077 209.3 349.13 193.545C350.548 186.238 345.067 178.834 333.28 172.144L333.124 172.048V171.857C333.124 150.578 329.148 130.525 321.206 112.256C313.834 95.0294 302.714 79.6641 288.655 67.2785C262.489 44.3462 228.284 34.2546 192.314 38.8219Z" fill="white"/>
<path d="M251.502 148.751L251.415 148.098C295.78 142.139 324.973 129.968 327.618 116.353C328.835 110.072 324.138 103.695 313.96 97.9272L314.282 97.353C324.721 103.277 329.531 109.889 328.253 116.492C325.565 130.377 296.154 142.748 251.502 148.751Z" fill="white"/>
<path d="M226.545 79.8058L226.458 79.162C252.311 75.6822 269.326 68.6181 270.823 60.7188C271.518 57.1084 268.787 53.4372 262.907 50.0965L263.228 49.531C269.37 53.0109 272.223 56.9344 271.458 60.8406C269.909 69.0269 252.685 76.2912 226.545 79.8058Z" fill="white"/>
<path d="M323.538 215.616H322.886C323.042 131.743 263.994 52.4889 191.262 38.9609L191.375 38.3171C264.403 51.8712 323.695 131.438 323.538 215.616Z" fill="white"/>
<path d="M349.574 194.546H348.921C349.078 110.698 278.373 40.9184 191.314 38.9957V38.3433C278.739 40.2398 349.73 110.316 349.574 194.546Z" fill="white"/>
<path d="M191.062 350C183.333 349.997 175.613 349.43 167.966 348.303C161.19 347.312 155.875 346.05 153.605 345.511C147.315 344.023 141.252 341.979 141.2 341.953C135.705 340.136 130.315 338.016 125.055 335.602C121.34 333.949 116.356 331.409 112.728 329.295C109.675 327.555 106.204 325.484 103.673 323.736C99.0884 320.578 93.756 316.645 90.085 313.705C84.6134 309.355 77.9066 302.508 73.3396 297.767C69.8353 294.087 66.5969 290.162 63.649 286.022L62.1528 283.891C59.9868 280.794 57.5337 277.279 55.7243 274.4C53.4017 270.702 50.7572 265.77 49.7221 263.821C47.6952 259.976 45.3726 254.843 43.9286 251.311C42.963 248.979 41.9539 246.091 40.9797 243.342C40.5273 242.054 40.1098 240.81 39.6748 239.688C38.1531 235.344 36.9352 230.899 36.03 226.386C34.3427 218.052 33.1258 209.629 32.3851 201.157C31.9241 194.554 31.7414 184.941 32.62 177.755C32.7679 176.529 32.9071 175.145 33.0462 173.78C33.3855 170.517 33.7596 166.82 34.3772 163.932C34.6294 162.766 34.8904 161.47 35.1601 160.13C35.7516 157.172 36.3605 154.118 37.0129 151.613C38.1004 147.168 39.4274 142.786 40.9883 138.485C41.3972 137.45 41.8582 136.301 42.2845 135.11C43.3545 132.3 44.4679 129.394 45.5205 127.028C47.2603 123.121 49.696 118.189 51.6097 114.77C53.5235 111.351 55.9592 107.279 57.8208 104.417C60.326 100.512 63.0291 96.7371 65.9195 93.1076C70.8192 87.0804 76.0464 81.3271 81.5775 75.8736C84.4482 73.168 88.5801 69.5664 92.0945 66.7129C94.7738 64.5293 98.2794 61.9281 100.793 60.2229C104.273 57.8653 109.275 54.7596 113.137 52.4889C115.538 51.0883 118.835 49.3484 121.349 48.1391C124.072 46.8603 127.186 45.4161 129.578 44.3896C131.431 43.6066 133.928 42.6496 135.867 41.9189L136.537 41.6666C140.956 39.9875 146.628 38.3607 148.263 37.9083C150.795 37.2036 152.682 36.7078 154.04 36.4033C156.901 35.7682 161.512 34.7851 165.096 34.1414C167.497 33.7064 173.264 32.8973 178.031 32.5319C188.73 31.6536 199.491 31.8634 210.148 33.1583C217.62 34.0718 223.196 35.2897 223.196 35.2984C226.789 36.1075 230.973 37.1253 233.852 37.9083C236.218 38.5521 239.245 39.5265 240.811 40.0484C243.23 40.8488 246.466 42.0233 248.849 42.9628C251.546 44.0242 255.086 45.5727 256.956 46.4427C259.357 47.5127 262.176 48.9482 264.785 50.3314C266.29 51.1057 267.787 51.9148 269.257 52.7499L269.735 53.0457C275.355 56.5256 282.34 60.7797 287.298 64.6859C291.187 67.7481 295.684 71.5238 298.763 74.3077C301.46 76.7523 304.792 80.0581 307.062 82.555C310.307 86.1218 314.021 90.4542 316.501 93.6035C318.519 96.1612 321.276 99.9891 323.521 103.356C325.765 106.723 328.514 111.307 330.715 115.292C332.228 118.041 333.924 121.608 335.421 124.748L336.134 126.253C337.935 130.012 339.892 135.284 341.205 139.042C342.075 141.443 342.945 144.392 343.728 147.246C344.111 148.559 344.476 149.856 344.824 150.969C346.125 155.406 347.093 159.934 347.721 164.514C347.869 165.689 348.052 166.976 348.243 168.316C348.669 171.378 349.113 174.536 349.33 177.172C349.678 181.409 349.922 187.081 349.93 191.283C349.787 199.869 349.078 208.437 347.808 216.93C347.067 222.047 345.977 227.108 344.546 232.076C344.267 232.998 343.963 234.007 343.676 235.051C342.806 238.009 341.806 241.358 340.875 243.968C339.409 248.247 337.713 252.443 335.795 256.539L334.69 259.001C333.324 261.811 331.776 264.995 330.419 267.449C328.366 271.137 325.539 275.783 323.39 279.002C318.648 286.112 313.342 292.83 307.523 299.089C306.418 300.264 302.556 304.309 299.338 307.284C295.919 310.416 291.752 313.975 288.716 316.35C286.341 318.194 282.801 320.839 279.974 322.7C276.172 325.206 271.031 328.294 267.491 330.339C261.65 333.532 255.622 336.37 249.441 338.838C246.239 340.056 241.516 341.77 237.897 342.892C234.626 343.901 230.025 345.137 226.449 345.963C214.844 348.643 202.973 349.997 191.062 350ZM113.059 328.729C116.695 330.834 121.619 333.357 125.324 335.002C130.566 337.409 135.935 339.526 141.409 341.344C141.47 341.344 147.498 343.397 153.744 344.876C156.014 345.415 161.312 346.668 168.062 347.66C187.465 350.532 207.235 349.738 226.345 345.319C229.903 344.502 234.478 343.275 237.732 342.266C241.342 341.144 246.048 339.447 249.249 338.229C255.381 335.77 261.362 332.949 267.16 329.782C270.701 327.729 275.859 324.658 279.617 322.161C282.427 320.308 285.95 317.672 288.316 315.828C291.343 313.47 295.501 309.92 298.911 306.797C301.069 304.822 304.131 301.769 307.054 298.646C312.849 292.41 318.134 285.718 322.859 278.636C324.999 275.418 327.809 270.807 329.819 267.118C331.176 264.682 332.715 261.507 334.072 258.706L335.273 256.244C337.175 252.166 338.859 247.99 340.318 243.733C341.249 241.124 342.241 237.8 343.111 234.86C343.424 233.816 343.719 232.807 343.98 231.876C345.401 226.941 346.485 221.916 347.225 216.834C348.491 208.373 349.197 199.837 349.339 191.283C349.339 187.081 349.095 181.435 348.747 177.216C348.53 174.606 348.086 171.448 347.66 168.403C347.469 167.055 347.286 165.793 347.138 164.584C346.511 160.044 345.549 155.558 344.259 151.16C343.911 150.012 343.545 148.742 343.163 147.428C342.345 144.584 341.493 141.643 340.657 139.259C339.335 135.518 337.395 130.273 335.612 126.54L334.89 125.027C333.403 121.895 331.706 118.345 330.201 115.605C328.009 111.629 325.199 106.966 323.033 103.721C320.867 100.476 318.066 96.5527 316.074 94.0124C313.595 90.8718 309.898 86.5481 306.662 82.9899C304.409 80.5192 301.095 77.2221 298.415 74.7949C295.336 72.0197 290.856 68.2527 286.985 65.2252C282.044 61.3191 275.076 57.0389 269.448 53.6112L268.987 53.3241C267.682 52.6107 266.151 51.7756 264.542 50.923C242.525 39.6135 217.394 35.4985 191.471 38.9523H191.419H191.306L191.219 38.3085C209.865 35.67 228.866 37.2335 246.831 42.8845C244.795 42.119 242.525 41.3099 240.742 40.7096C239.15 40.1789 236.14 39.2133 233.783 38.5782C230.912 37.8039 226.745 36.8383 223.161 35.9683C223.109 35.9683 217.646 34.759 210.156 33.8369C199.522 32.5496 188.784 32.3485 178.109 33.2366C173.36 33.602 167.619 34.4024 165.244 34.8373C161.668 35.4811 157.067 36.4555 154.213 37.0906C152.856 37.395 150.986 37.8822 148.464 38.5869C146.837 39.0393 141.183 40.6574 136.798 42.3277L136.12 42.58C134.154 43.3282 131.701 44.2591 129.857 45.042C127.473 46.0599 124.376 47.504 121.653 48.7829C119.157 49.9573 115.877 51.6799 113.494 53.0805C109.64 55.3424 104.691 58.4395 101.176 60.7884C98.6535 62.5283 95.1652 65.0773 92.4773 67.2436C88.9977 70.097 84.8657 73.6726 82.0386 76.3695C76.5094 81.8066 71.2823 87.5424 66.3805 93.5513C63.5059 97.1665 60.8146 100.924 58.3166 104.809C56.4637 107.61 53.9671 111.768 52.1404 115.118C50.3136 118.467 47.8431 123.435 46.1033 127.297C45.0594 129.637 43.9547 132.517 42.8847 135.344C42.4324 136.536 42.0148 137.685 41.5886 138.729C40.0328 143.002 38.7143 147.359 37.6393 151.778C36.9868 154.266 36.3779 157.311 35.7864 160.26C35.5167 161.6 35.2558 162.87 35.0122 164.071C34.4033 166.924 34.0205 170.604 33.69 173.849C33.5421 175.25 33.4029 176.607 33.255 177.834C32.3851 184.976 32.5678 194.537 33.0288 201.114C33.7663 209.547 34.9774 217.932 36.6563 226.23C37.5619 230.71 38.7739 235.122 40.2837 239.436C40.6926 240.549 41.1536 241.802 41.5799 243.09C42.5542 245.856 43.5632 248.71 44.5288 251.032C45.9902 254.512 48.2694 259.654 50.2962 263.473C51.3227 265.422 53.9584 270.337 56.2724 274.017C58.0643 276.888 60.5174 280.394 62.6835 283.482L64.1797 285.622C67.1065 289.731 70.3216 293.627 73.8007 297.28C78.3502 302.012 85.0397 308.807 90.4852 313.165C94.1388 316.089 99.4625 320.021 104.029 323.161C106.552 324.901 110.006 326.928 113.05 328.694L113.059 328.729Z" fill="white"/>
<path d="M190.488 349.991H189.818L187.443 349.948H186.382C185.417 349.948 184.06 349.878 182.903 349.809C176.345 349.471 169.814 348.73 163.347 347.59C151.543 345.504 140.014 342.077 128.987 337.377C123.431 334.97 118.001 332.282 112.72 329.321C107.856 326.613 103.162 323.612 98.6623 320.334C97.8968 319.751 97.0704 319.134 96.2092 318.498C93.2951 316.324 89.9895 313.862 87.5886 311.652C86.7883 310.921 85.9097 310.121 84.9789 309.294C82.9172 307.441 80.7773 305.519 79.0897 303.822C76.1321 300.847 72.3915 296.81 69.7906 293.783C66.1109 289.503 61.5092 283.169 55.707 274.435C53.2763 270.57 51.0408 266.587 49.0088 262.499C46.9214 258.5 45.0598 254.387 43.4328 250.18C40.5608 242.393 38.0814 234.466 36.004 226.43C34.4294 219.775 33.3247 210.823 32.5244 203.767C32.159 200.462 32.0981 196.277 32.0546 192.588V190.796C31.9666 186.072 32.1845 181.347 32.7071 176.651C32.8636 175.459 33.0202 174.136 33.1855 172.762C33.5422 169.726 33.9162 166.585 34.3686 164.001C35.108 159.791 36.291 154.353 37.3175 150.473C38.3092 146.724 39.7793 141.93 40.9797 138.555C41.9975 135.675 43.4763 132.117 44.7812 128.985L46.1034 125.766C47.9668 121.408 50.1142 117.177 52.5319 113.1C55.9071 107.401 61.1438 99.5803 65.8673 93.1687C68.8004 89.2438 71.9974 85.5233 75.4362 82.0331L77.8023 79.6494C79.6986 77.7268 81.856 75.5345 83.6827 73.9077C87.084 70.8802 91.9902 66.8261 96.1831 63.5725C99.1755 61.2496 103.386 58.4919 105.056 57.4131C107.509 55.8298 110.806 53.9332 113.459 52.3673L114.242 51.9149C119.538 48.8977 125.037 46.2524 130.7 43.9982C135.554 42.1104 139.234 40.762 141.931 39.8833C145.462 38.7436 150.256 37.4387 153.561 36.5948C157.719 35.5422 163.13 34.5678 164.661 34.2894C168.141 33.6804 171.011 33.3412 174.038 32.9932C175.143 32.8627 179.414 32.4625 181.72 32.3494C184.869 32.1928 187.583 32.0536 192.219 32.0797C199.552 32.1562 206.87 32.7375 214.123 33.8196C217.646 34.3242 221.735 35.1072 223.622 35.5074C226.328 36.0902 230.312 37.0733 234.305 38.1173C236.566 38.7262 239.733 39.718 242.177 40.5793C245.805 41.8668 250.058 43.4937 253.033 44.7377C258.253 46.9126 264.881 50.4534 269.292 52.7936C270.301 53.3678 271.301 53.9593 272.293 54.5335C275.39 56.3691 278.982 58.5789 281.653 60.5624C282.436 61.1453 283.306 61.7803 284.21 62.4328C286.281 63.9465 288.629 65.6604 290.421 67.1219C294.03 69.9684 297.49 72.9969 300.79 76.1957C301.565 76.996 302.426 77.866 303.33 78.8056C305.305 80.7891 307.349 82.8335 308.95 84.6256C311.942 87.975 315.352 92.0899 317.649 95.0652C319.945 98.0405 322.729 102.025 324.565 104.913C325.574 106.488 329.062 112.003 331.411 116.545C335.462 124.129 338.886 132.031 341.649 140.173C344.537 148.655 346.869 160.008 347.738 164.488C348.547 168.656 349.113 174.31 349.478 178.321C349.713 181.192 349.809 184.811 349.887 188.012C349.887 189.161 349.948 190.266 349.983 191.275C350.075 196.585 349.801 201.896 349.165 207.169C348.626 211.632 348.034 216.243 347.364 219.783C346.582 223.968 345.338 229.397 344.268 233.277C343.25 237 341.728 241.759 340.492 245.134C339.405 248.075 337.883 251.703 336.482 254.904L335.221 257.871C333.558 261.59 331.697 265.217 329.645 268.736C327.992 271.633 325.722 275.183 323.721 278.306L322.251 280.672C319.463 284.847 316.43 288.853 313.169 292.669C308.193 298.594 302.813 304.166 297.067 309.346C293.588 312.374 288.612 316.411 284.332 319.647C281.957 321.439 278.695 323.553 276.077 325.249L275.459 325.65C269.702 329.251 263.729 332.497 257.574 335.367C255.408 336.324 249.893 338.734 245.604 340.317C242.395 341.5 237.775 342.997 234.035 344.041C228.539 345.584 222.967 346.841 217.342 347.808C213.131 348.521 210.757 348.791 207.999 349.104C206.39 349.287 202.449 349.635 200.318 349.739C197.291 349.896 195.333 349.991 193.246 350H190.488V349.991ZM191.158 32.7322C187.191 32.7322 184.677 32.854 181.798 33.0019C179.501 33.115 175.256 33.5065 174.16 33.6369C171.133 33.9936 168.28 34.3242 164.818 34.9332C160.686 35.664 156.554 36.5165 153.77 37.2299C150.473 38.0999 145.697 39.37 142.174 40.5097C139.486 41.3796 135.824 42.7194 130.979 44.6072C125.348 46.831 119.88 49.4474 114.616 52.4369L113.833 52.8893C111.224 54.4291 107.892 56.3691 105.447 57.9177C103.786 58.9877 99.6018 61.7368 96.6267 64.0074C92.4426 67.2524 87.5538 71.2978 84.1612 74.3165C82.3518 75.926 80.2032 78.1096 78.3068 80.0322L75.9407 82.4159C72.5136 85.8799 69.3308 89.5774 66.4154 93.4819C61.6919 99.8761 56.4725 107.671 53.106 113.361C50.7144 117.424 48.5931 121.641 46.7558 125.984C46.347 126.984 45.8859 128.072 45.4249 129.203C44.1287 132.335 42.6499 135.884 41.6322 138.772C40.4404 142.139 39.0225 146.898 37.9873 150.639C36.9521 154.379 35.7952 159.921 35.0558 164.114C34.6034 166.681 34.2294 169.813 33.8727 172.814C33.7161 174.189 33.5596 175.511 33.403 176.711C32.8801 181.376 32.6622 186.069 32.7506 190.761V192.554C32.8028 196.225 32.8636 200.383 33.229 203.663C34.0119 210.71 35.108 219.636 36.7086 226.282C38.7773 234.296 41.2509 242.199 44.12 249.963C45.737 254.146 47.587 258.235 49.6613 262.212C51.6783 266.277 53.8994 270.237 56.3159 274.078C60.6173 280.774 65.3053 287.214 70.356 293.365C72.9657 296.384 76.6714 300.412 79.6203 303.378C81.2992 305.058 83.4218 306.971 85.4834 308.824C86.4055 309.651 87.2928 310.443 88.0931 311.173C90.4766 313.366 93.7735 315.819 96.6702 317.985C97.5401 318.62 98.3578 319.238 99.1233 319.821C103.599 323.078 108.267 326.062 113.102 328.755C118.365 331.706 123.774 334.386 129.309 336.785C146.344 344.038 164.525 348.228 183.016 349.165C184.138 349.234 185.486 349.287 186.452 349.304H187.504L189.87 349.347C190.584 349.347 191.454 349.347 192.263 349.347H193.298C195.368 349.347 197.325 349.243 200.257 349.095C202.432 348.982 206.346 348.634 207.956 348.451C210.696 348.138 213.07 347.869 217.255 347.164C222.86 346.205 228.412 344.954 233.887 343.414C237.584 342.379 242.212 340.883 245.404 339.708C249.684 338.134 255.173 335.732 257.339 334.767C263.459 331.911 269.4 328.686 275.129 325.11L275.746 324.701C278.356 323.014 281.609 320.9 283.967 319.125C288.238 315.897 293.222 311.869 296.667 308.859C302.388 303.697 307.744 298.145 312.699 292.243C315.944 288.45 318.959 284.468 321.729 280.316L323.225 277.967C325.217 274.852 327.479 271.32 329.131 268.397C331.174 264.905 333.029 261.307 334.69 257.618L335.951 254.643C337.317 251.45 338.866 247.831 339.944 244.908C341.179 241.55 342.693 236.809 343.711 233.103C344.772 229.231 346.016 223.838 346.799 219.67C347.451 216.138 348.043 211.536 348.582 207.091C349.218 201.853 349.492 196.577 349.4 191.301C349.4 190.283 349.339 189.178 349.304 188.021C349.226 184.837 349.139 181.227 348.904 178.373C348.574 174.38 348.034 168.751 347.164 164.619C346.294 160.139 343.937 148.829 341.075 140.382C338.327 132.262 334.92 124.38 330.889 116.814C328.549 112.299 325.078 106.81 324.069 105.235C322.242 102.382 319.537 98.5364 317.179 95.4393C314.822 92.3422 311.507 88.3404 308.48 84.9997C306.888 83.2598 304.853 81.1806 302.887 79.2057C302.017 78.3358 301.147 77.4658 300.338 76.5958C297.057 73.4098 293.614 70.3957 290.021 67.5656L289.804 67.3829C317.214 91.7419 333.203 128.228 333.733 169.421C333.733 170.117 333.733 170.822 333.733 171.526V171.831C333.62 256.052 269.448 333.149 190.801 343.727L190.714 343.084C269.083 332.54 332.95 255.739 333.124 171.874V171.57C333.124 121.608 310.359 78.3532 271.997 55.0729L269.013 53.333C264.62 51.0015 257.966 47.4694 252.816 45.3032C249.858 44.0678 245.613 42.441 241.994 41.1621C239.567 40.2922 236.418 39.3178 234.165 38.7175C230.19 37.6475 226.215 36.6644 223.518 36.1076C221.639 35.6988 217.577 34.9245 214.071 34.4199C206.845 33.3622 199.556 32.7983 192.254 32.7322H191.158Z" fill="white"/>
</g>
</svg>
