<svg width="120" height="121" viewBox="0 0 120 121" fill="none" xmlns="http://www.w3.org/2000/svg">
<path d="M22.9289 23.2402C21.0536 25.1156 20 27.6591 20 30.3113V100.311C20 102.963 21.0536 105.507 22.9289 107.382C24.8043 109.258 27.3478 110.311 30 110.311H90C92.6522 110.311 95.1957 109.258 97.0711 107.382C98.9464 105.507 100 102.963 100 100.311V30.3113C100 27.6591 98.9464 25.1156 97.0711 23.2402C95.1957 21.3648 92.6522 20.3113 90 20.3113H80M80 20.3113V15.3113C80 12.5499 77.7614 10.3113 75 10.3113H45C42.2386 10.3113 40 12.5499 40 15.3113V20.3113V25.3113C40 28.0727 42.2386 30.3113 45 30.3113H75C77.7614 30.3113 80 28.0727 80 25.3113V20.3113Z" stroke="url(#paint0_linear_2214_1650)" stroke-width="2" stroke-linecap="round" stroke-linejoin="round"/>
<defs>
<linearGradient id="paint0_linear_2214_1650" x1="20" y1="110.311" x2="100" y2="110.311" gradientUnits="userSpaceOnUse">
<stop stop-color="#467DE7"/>
<stop offset="1" stop-color="#DA46E7"/>
</linearGradient>
</defs>
</svg>
