<svg width="120" height="121" viewBox="0 0 120 121" fill="none" xmlns="http://www.w3.org/2000/svg">
<path d="M15 60.3113V80.3113C15.0018 82.0649 15.4647 83.7872 16.3423 85.3055C17.2199 86.8237 18.4813 88.0845 20 88.9613L55 108.961C56.5202 109.839 58.2446 110.301 60 110.301C61.7554 110.301 63.4798 109.839 65 108.961L100 88.9613C101.519 88.0845 102.78 86.8237 103.658 85.3055C104.535 83.7872 104.998 82.0649 105 80.3113V40.3113C104.998 38.5577 104.535 36.8353 103.658 35.3171C102.78 33.7989 101.519 32.5381 100 31.6613L65 11.6613C63.4798 10.7836 61.7554 10.3215 60 10.3215C58.2446 10.3215 56.5202 10.7836 55 11.6613L20 31.6613C18.4813 32.5381 17.2199 33.7989 16.3423 35.3171C15.4647 36.8353 15.0018 38.5577 15 40.3113V45.3113M75 60.3113C75 68.5955 68.2843 75.3113 60 75.3113C51.7157 75.3113 45 68.5955 45 60.3113C45 52.027 51.7157 45.3113 60 45.3113C68.2843 45.3113 75 52.027 75 60.3113Z" stroke="url(#paint0_linear_2214_1655)" stroke-width="2" stroke-linecap="round" stroke-linejoin="round"/>
<defs>
<linearGradient id="paint0_linear_2214_1655" x1="15" y1="110.301" x2="105" y2="110.301" gradientUnits="userSpaceOnUse">
<stop stop-color="#467DE7"/>
<stop offset="1" stop-color="#DA46E7"/>
</linearGradient>
</defs>
</svg>
