<svg width="32" height="32" viewBox="0 0 32 32" fill="none" xmlns="http://www.w3.org/2000/svg">
<path d="M27.107 6.07458C25.0356 5.10541 22.8208 4.40106 20.5052 4C20.2208 4.51415 19.8886 5.20569 19.6595 5.7558C17.198 5.38562 14.7591 5.38562 12.3429 5.7558C12.1139 5.20569 11.7741 4.51415 11.4871 4C9.16908 4.40106 6.95167 5.108 4.88026 6.07971C0.70219 12.3933 -0.430415 18.5501 0.135889 24.6195C2.907 26.6889 5.59255 27.946 8.23277 28.7686C8.88465 27.8714 9.46605 26.9177 9.9669 25.9125C9.013 25.5501 8.09937 25.1028 7.2361 24.5835C7.46512 24.4138 7.68914 24.2364 7.90557 24.0539C13.1709 26.5167 18.8919 26.5167 24.0943 24.0539C24.3133 24.2364 24.5373 24.4138 24.7638 24.5835C23.898 25.1053 22.9818 25.5526 22.0279 25.9151C22.5288 26.9177 23.1077 27.874 23.7621 28.7711C26.4048 27.9485 29.0929 26.6915 31.864 24.6195C32.5285 17.5835 30.7289 11.4833 27.107 6.07458ZM10.6842 20.8869C9.10363 20.8869 7.8074 19.4113 7.8074 17.6144C7.8074 15.8175 9.07595 14.3393 10.6842 14.3393C12.2926 14.3393 13.5887 15.8149 13.5611 17.6144C13.5636 19.4113 12.2926 20.8869 10.6842 20.8869ZM21.3157 20.8869C19.7351 20.8869 18.4388 19.4113 18.4388 17.6144C18.4388 15.8175 19.7073 14.3393 21.3157 14.3393C22.9239 14.3393 24.2202 15.8149 24.1925 17.6144C24.1925 19.4113 22.9239 20.8869 21.3157 20.8869Z" fill="white"/>
</svg>
