<svg width="300" height="233" viewBox="0 0 300 233" fill="none" xmlns="http://www.w3.org/2000/svg">
<path d="M254.129 19.4491C234.709 10.3632 213.945 3.75996 192.236 0C189.57 4.82013 186.455 11.3033 184.308 16.4607C161.231 12.9902 138.367 12.9902 115.714 16.4607C113.567 11.3033 110.382 4.82013 107.692 0C85.9601 3.75996 65.172 10.3875 45.7524 19.4973C6.58303 78.6873 -4.03514 136.407 1.27396 193.308C27.2532 212.708 52.4301 224.493 77.1822 232.205C83.2936 223.794 88.7442 214.853 93.4397 205.43C84.4969 202.032 75.9316 197.839 67.8384 192.97C69.9855 191.38 72.0857 189.717 74.1148 188.005C123.477 211.094 177.111 211.094 225.884 188.005C227.937 189.717 230.037 191.38 232.161 192.97C224.044 197.862 215.455 202.056 206.512 205.454C211.208 214.853 216.635 223.819 222.77 232.229C247.545 224.517 272.746 212.732 298.725 193.308C304.954 127.346 288.083 70.1558 254.129 19.4491ZM100.165 158.314C85.3465 158.314 73.1944 144.481 73.1944 127.635C73.1944 110.789 85.087 96.9311 100.165 96.9311C115.243 96.9311 127.395 110.764 127.135 127.635C127.158 144.481 115.243 158.314 100.165 158.314ZM199.834 158.314C185.016 158.314 172.864 144.481 172.864 127.635C172.864 110.789 184.756 96.9311 199.834 96.9311C214.912 96.9311 227.064 110.764 226.805 127.635C226.805 144.481 214.912 158.314 199.834 158.314Z" fill="#DEE0FC"/>
</svg>
