<svg width="848" height="160" viewBox="0 0 848 160" fill="none" xmlns="http://www.w3.org/2000/svg">
<path d="M80.3544 42.8928C99.9224 52.7918 109.956 71.8518 109.956 79.2535C109.956 86.6491 99.9387 105.684 80.402 115.59C79.3574 115.063 78.3399 114.51 77.3496 113.934C85.3428 118.584 95.109 121.74 106.608 121.74C130.108 121.74 149.159 102.707 149.159 79.2294C149.159 55.7514 130.108 36.7188 106.608 36.7188C96.5119 36.7188 87.7517 39.1516 80.3544 42.8928Z" fill="url(#paint0_linear_1354_115)"/>
<path d="M80.3554 42.8928C72.9595 39.1515 64.2016 36.7188 54.1085 36.7188C30.6083 36.7188 11.5576 55.7622 11.5576 79.2535C11.5576 102.745 30.6083 121.788 54.1085 121.788C65.6077 121.788 75.3738 118.63 83.3671 113.977C82.4047 114.537 81.4166 115.076 80.403 115.59C60.8081 105.702 50.761 86.632 50.761 79.2294C50.761 71.8328 60.7919 52.7872 80.3554 42.8928Z" fill="url(#paint1_linear_1354_115)"/>
<g filter="url(#filter0_dd_1354_115)">
<path d="M80.4036 115.59C99.9403 105.684 109.957 86.6492 109.957 79.2535C109.957 71.8518 99.924 52.7918 80.356 42.8928C60.7926 52.7872 50.7617 71.8328 50.7617 79.2294C50.7617 86.632 60.8088 105.703 80.4036 115.59Z" fill="url(#paint2_linear_1354_115)"/>
</g>
<path d="M201.482 100.6C198.923 100.6 196.583 99.98 194.464 98.74C192.385 97.46 190.726 95.78 189.486 93.7C188.247 91.58 187.627 89.28 187.627 86.8C187.627 86.24 187.787 85.8 188.107 85.48C188.467 85.16 188.906 85 189.426 85C189.946 85 190.366 85.16 190.686 85.48C191.046 85.8 191.226 86.24 191.226 86.8C191.226 88.68 191.685 90.4 192.605 91.96C193.565 93.48 194.824 94.7 196.384 95.62C197.943 96.54 199.642 97 201.482 97C203.361 97 205.06 96.54 206.58 95.62C208.139 94.66 209.378 93.42 210.298 91.9C211.218 90.34 211.678 88.64 211.678 86.8V54.94C211.678 54.42 211.857 54 212.217 53.68C212.577 53.32 212.997 53.14 213.477 53.14C213.997 53.14 214.416 53.32 214.736 53.68C215.096 54 215.276 54.42 215.276 54.94V86.8C215.276 89.32 214.656 91.62 213.417 93.7C212.177 95.78 210.498 97.46 208.379 98.74C206.3 99.98 204.001 100.6 201.482 100.6Z" fill="white"/>
<path d="M238.094 100.36C234.895 100.36 232.016 99.64 229.457 98.2C226.938 96.72 224.939 94.72 223.46 92.2C222.02 89.64 221.3 86.78 221.3 83.62C221.3 80.42 222.02 77.56 223.46 75.04C224.939 72.48 226.938 70.48 229.457 69.04C232.016 67.56 234.895 66.82 238.094 66.82C241.293 66.82 244.151 67.56 246.671 69.04C249.19 70.48 251.169 72.48 252.608 75.04C254.088 77.56 254.827 80.42 254.827 83.62V98.2C254.827 98.72 254.667 99.16 254.347 99.52C254.028 99.84 253.588 100 253.028 100C252.508 100 252.068 99.84 251.709 99.52C251.389 99.16 251.229 98.72 251.229 98.2V93.52C249.909 95.6 248.11 97.26 245.831 98.5C243.552 99.74 240.973 100.36 238.094 100.36ZM238.094 97C240.613 97 242.852 96.42 244.811 95.26C246.81 94.06 248.37 92.46 249.489 90.46C250.649 88.42 251.229 86.14 251.229 83.62C251.229 81.06 250.649 78.78 249.489 76.78C248.37 74.74 246.81 73.14 244.811 71.98C242.852 70.78 240.613 70.18 238.094 70.18C235.615 70.18 233.376 70.78 231.377 71.98C229.377 73.14 227.798 74.74 226.638 76.78C225.479 78.78 224.899 81.06 224.899 83.62C224.899 86.14 225.479 88.42 226.638 90.46C227.798 92.46 229.377 94.06 231.377 95.26C233.376 96.42 235.615 97 238.094 97Z" fill="white"/>
<path d="M262.007 114.04C261.487 114.04 261.048 113.86 260.688 113.5C260.368 113.18 260.208 112.76 260.208 112.24V83.26C260.288 80.1 261.048 77.3 262.487 74.86C263.966 72.38 265.966 70.42 268.485 68.98C271.004 67.54 273.823 66.82 276.941 66.82C280.14 66.82 282.999 67.56 285.518 69.04C288.077 70.48 290.076 72.48 291.516 75.04C292.995 77.56 293.735 80.42 293.735 83.62C293.735 86.78 292.995 89.64 291.516 92.2C290.076 94.72 288.077 96.72 285.518 98.2C282.999 99.64 280.14 100.36 276.941 100.36C274.062 100.36 271.463 99.74 269.144 98.5C266.865 97.26 265.086 95.6 263.806 93.52V112.24C263.806 112.76 263.647 113.18 263.327 113.5C263.007 113.86 262.567 114.04 262.007 114.04ZM276.941 97C279.46 97 281.699 96.42 283.659 95.26C285.658 94.06 287.237 92.46 288.397 90.46C289.556 88.42 290.136 86.14 290.136 83.62C290.136 81.06 289.556 78.78 288.397 76.78C287.237 74.74 285.658 73.14 283.659 71.98C281.699 70.78 279.46 70.18 276.941 70.18C274.462 70.18 272.223 70.78 270.224 71.98C268.225 73.14 266.645 74.74 265.486 76.78C264.366 78.78 263.806 81.06 263.806 83.62C263.806 86.14 264.366 88.42 265.486 90.46C266.645 92.46 268.225 94.06 270.224 95.26C272.223 96.42 274.462 97 276.941 97Z" fill="white"/>
<path d="M314.126 100.36C310.927 100.36 308.048 99.64 305.489 98.2C302.97 96.72 300.971 94.72 299.492 92.2C298.052 89.64 297.332 86.78 297.332 83.62C297.332 80.42 298.052 77.56 299.492 75.04C300.971 72.48 302.97 70.48 305.489 69.04C308.048 67.56 310.927 66.82 314.126 66.82C317.325 66.82 320.183 67.56 322.702 69.04C325.221 70.48 327.201 72.48 328.64 75.04C330.119 77.56 330.859 80.42 330.859 83.62V98.2C330.859 98.72 330.699 99.16 330.379 99.52C330.06 99.84 329.62 100 329.06 100C328.54 100 328.1 99.84 327.74 99.52C327.421 99.16 327.261 98.72 327.261 98.2V93.52C325.941 95.6 324.142 97.26 321.863 98.5C319.584 99.74 317.005 100.36 314.126 100.36ZM314.126 97C316.645 97 318.884 96.42 320.843 95.26C322.842 94.06 324.402 92.46 325.521 90.46C326.681 88.42 327.261 86.14 327.261 83.62C327.261 81.06 326.681 78.78 325.521 76.78C324.402 74.74 322.842 73.14 320.843 71.98C318.884 70.78 316.645 70.18 314.126 70.18C311.647 70.18 309.408 70.78 307.408 71.98C305.409 73.14 303.83 74.74 302.67 76.78C301.511 78.78 300.931 81.06 300.931 83.62C300.931 86.14 301.511 88.42 302.67 90.46C303.83 92.46 305.409 94.06 307.408 95.26C309.408 96.42 311.647 97 314.126 97Z" fill="white"/>
<path d="M338.039 100C337.519 100 337.079 99.84 336.72 99.52C336.4 99.16 336.24 98.72 336.24 98.2V68.98C336.24 68.42 336.4 67.98 336.72 67.66C337.079 67.34 337.519 67.18 338.039 67.18C338.599 67.18 339.039 67.34 339.359 67.66C339.678 67.98 339.838 68.42 339.838 68.98V72.1C341.158 70.46 342.797 69.16 344.756 68.2C346.756 67.24 348.915 66.76 351.234 66.76C354.113 66.76 356.692 67.36 358.971 68.56C361.29 69.72 363.109 71.44 364.429 73.72C365.748 75.96 366.408 78.74 366.408 82.06V98.2C366.408 98.72 366.228 99.16 365.868 99.52C365.548 99.84 365.128 100 364.609 100C364.089 100 363.649 99.84 363.289 99.52C362.969 99.16 362.809 98.72 362.809 98.2V82.06C362.809 79.42 362.29 77.24 361.25 75.52C360.25 73.8 358.871 72.52 357.112 71.68C355.392 70.8 353.433 70.36 351.234 70.36C349.075 70.36 347.135 70.78 345.416 71.62C343.697 72.42 342.337 73.54 341.338 74.98C340.338 76.42 339.838 78.04 339.838 79.84V98.2C339.838 98.72 339.678 99.16 339.359 99.52C339.039 99.84 338.599 100 338.039 100Z" fill="white"/>
<path d="M390.688 100C389.808 100 389.068 99.7 388.468 99.1C387.869 98.5 387.569 97.76 387.569 96.88V56.26C387.569 55.34 387.869 54.6 388.468 54.04C389.068 53.44 389.808 53.14 390.688 53.14H401.543C404.982 53.14 408.101 53.72 410.9 54.88C413.739 56 416.198 57.62 418.277 59.74C420.356 61.82 421.955 64.28 423.075 67.12C424.194 69.96 424.754 73.1 424.754 76.54C424.754 79.98 424.194 83.14 423.075 86.02C421.955 88.86 420.356 91.34 418.277 93.46C416.198 95.54 413.739 97.16 410.9 98.32C408.101 99.44 404.982 100 401.543 100H390.688ZM393.806 94.48H401.543C404.902 94.48 407.861 93.72 410.42 92.2C413.019 90.64 415.058 88.52 416.537 85.84C418.017 83.12 418.757 80.02 418.757 76.54C418.757 73.02 418.017 69.92 416.537 67.24C415.058 64.56 413.019 62.46 410.42 60.94C407.861 59.42 404.902 58.66 401.543 58.66H393.806V94.48Z" fill="white"/>
<path d="M425.514 100C424.395 100 423.535 99.52 422.935 98.56C422.335 97.6 422.276 96.58 422.755 95.5L439.609 55.24C440.208 53.84 441.188 53.14 442.548 53.14C443.987 53.14 444.967 53.84 445.486 55.24L462.4 95.62C462.84 96.74 462.76 97.76 462.16 98.68C461.6 99.56 460.74 100 459.581 100C458.981 100 458.401 99.84 457.842 99.52C457.322 99.16 456.942 98.68 456.702 98.08L453.343 89.68H431.812L428.393 98.08C428.113 98.72 427.693 99.2 427.134 99.52C426.614 99.84 426.074 100 425.514 100ZM433.911 84.52H451.244L442.668 63.16L433.911 84.52Z" fill="white"/>
<path d="M484.027 100.6C480.508 100.6 477.29 100.02 474.371 98.86C471.452 97.66 468.933 96 466.814 93.88C464.734 91.72 463.115 89.18 461.956 86.26C460.796 83.3 460.216 80.06 460.216 76.54C460.216 73.02 460.796 69.8 461.956 66.88C463.115 63.96 464.734 61.44 466.814 59.32C468.933 57.16 471.452 55.5 474.371 54.34C477.29 53.14 480.508 52.54 484.027 52.54C487.546 52.54 490.744 53.14 493.623 54.34C496.542 55.5 499.061 57.16 501.18 59.32C503.299 61.44 504.939 63.96 506.098 66.88C507.258 69.8 507.838 73.02 507.838 76.54C507.838 80.06 507.258 83.3 506.098 86.26C504.939 89.18 503.299 91.72 501.18 93.88C499.061 96 496.542 97.66 493.623 98.86C490.744 100.02 487.546 100.6 484.027 100.6ZM484.027 94.96C487.506 94.96 490.584 94.16 493.263 92.56C495.942 90.92 498.041 88.72 499.561 85.96C501.08 83.16 501.84 80.02 501.84 76.54C501.84 73.06 501.08 69.94 499.561 67.18C498.041 64.38 495.942 62.18 493.263 60.58C490.584 58.98 487.506 58.18 484.027 58.18C480.548 58.18 477.469 58.98 474.791 60.58C472.112 62.18 470.012 64.38 468.493 67.18C466.974 69.94 466.214 73.06 466.214 76.54C466.214 80.02 466.974 83.16 468.493 85.96C470.012 88.72 472.112 90.92 474.791 92.56C477.469 94.16 480.548 94.96 484.027 94.96Z" fill="white"/>
<path d="M522.524 100C521.764 100 521.224 99.7 520.904 99.1C520.625 98.5 520.625 97.94 520.904 97.42L539.077 54.4C539.397 53.56 539.977 53.14 540.817 53.14C541.616 53.14 542.196 53.56 542.556 54.4L560.789 97.42C561.109 97.98 561.089 98.56 560.729 99.16C560.369 99.72 559.849 100 559.169 100C558.37 100 557.81 99.62 557.49 98.86L553.052 88.24H528.641L524.203 98.86C523.923 99.62 523.364 100 522.524 100ZM530.021 85H551.672L540.817 59.08L530.021 85Z" fill="white"/>
<path d="M574.711 100.36C572.632 100.36 570.453 99.98 568.173 99.22C565.894 98.46 563.995 97.18 562.476 95.38C562.156 94.98 562.016 94.56 562.056 94.12C562.136 93.64 562.396 93.24 562.836 92.92C563.235 92.64 563.655 92.54 564.095 92.62C564.575 92.7 564.955 92.92 565.235 93.28C566.394 94.64 567.794 95.6 569.433 96.16C571.112 96.68 572.932 96.94 574.891 96.94C578.249 96.94 580.629 96.34 582.028 95.14C583.427 93.94 584.127 92.54 584.127 90.94C584.127 87.78 581.068 85.76 574.951 84.88C570.952 84.32 567.994 83.24 566.074 81.64C564.155 80.04 563.195 78.18 563.195 76.06C563.195 73.06 564.275 70.78 566.434 69.22C568.633 67.62 571.412 66.82 574.771 66.82C577.49 66.82 579.789 67.32 581.668 68.32C583.547 69.28 585.067 70.58 586.226 72.22C586.546 72.62 586.646 73.06 586.526 73.54C586.446 73.98 586.146 74.34 585.627 74.62C585.227 74.82 584.807 74.88 584.367 74.8C583.927 74.72 583.547 74.48 583.228 74.08C581.188 71.48 578.329 70.18 574.651 70.18C572.132 70.18 570.173 70.72 568.773 71.8C567.374 72.88 566.674 74.18 566.674 75.7C566.674 77.26 567.354 78.54 568.713 79.54C570.073 80.5 572.392 81.22 575.67 81.7C578.669 82.1 581.028 82.78 582.748 83.74C584.507 84.7 585.747 85.82 586.466 87.1C587.226 88.34 587.606 89.68 587.606 91.12C587.606 93 587.006 94.64 585.807 96.04C584.607 97.44 583.028 98.52 581.068 99.28C579.109 100 576.99 100.36 574.711 100.36Z" fill="white"/>
<path d="M603.268 100.36C601.188 100.36 599.009 99.98 596.73 99.22C594.451 98.46 592.552 97.18 591.032 95.38C590.713 94.98 590.573 94.56 590.613 94.12C590.693 93.64 590.952 93.24 591.392 92.92C591.792 92.64 592.212 92.54 592.652 92.62C593.132 92.7 593.511 92.92 593.791 93.28C594.951 94.64 596.35 95.6 597.99 96.16C599.669 96.68 601.488 96.94 603.448 96.94C606.806 96.94 609.185 96.34 610.585 95.14C611.984 93.94 612.684 92.54 612.684 90.94C612.684 87.78 609.625 85.76 603.508 84.88C599.509 84.32 596.55 83.24 594.631 81.64C592.712 80.04 591.752 78.18 591.752 76.06C591.752 73.06 592.832 70.78 594.991 69.22C597.19 67.62 599.969 66.82 603.328 66.82C606.047 66.82 608.346 67.32 610.225 68.32C612.104 69.28 613.624 70.58 614.783 72.22C615.103 72.62 615.203 73.06 615.083 73.54C615.003 73.98 614.703 74.34 614.183 74.62C613.784 74.82 613.364 74.88 612.924 74.8C612.484 74.72 612.104 74.48 611.784 74.08C609.745 71.48 606.886 70.18 603.208 70.18C600.689 70.18 598.729 70.72 597.33 71.8C595.931 72.88 595.231 74.18 595.231 75.7C595.231 77.26 595.911 78.54 597.27 79.54C598.629 80.5 600.949 81.22 604.227 81.7C607.226 82.1 609.585 82.78 611.304 83.74C613.064 84.7 614.303 85.82 615.023 87.1C615.783 88.34 616.163 89.68 616.163 91.12C616.163 93 615.563 94.64 614.363 96.04C613.164 97.44 611.584 98.52 609.625 99.28C607.666 100 605.547 100.36 603.268 100.36Z" fill="white"/>
<path d="M635.663 100.36C632.464 100.36 629.585 99.64 627.026 98.2C624.507 96.72 622.508 94.72 621.029 92.2C619.589 89.64 618.869 86.78 618.869 83.62C618.869 80.42 619.589 77.56 621.029 75.04C622.508 72.48 624.507 70.48 627.026 69.04C629.585 67.56 632.464 66.82 635.663 66.82C638.862 66.82 641.72 67.56 644.24 69.04C646.759 70.48 648.738 72.48 650.177 75.04C651.657 77.56 652.396 80.42 652.396 83.62C652.396 86.78 651.657 89.64 650.177 92.2C648.738 94.72 646.759 96.72 644.24 98.2C641.72 99.64 638.862 100.36 635.663 100.36ZM635.663 97C638.182 97 640.421 96.42 642.38 95.26C644.379 94.06 645.939 92.46 647.058 90.46C648.218 88.42 648.798 86.14 648.798 83.62C648.798 81.06 648.218 78.78 647.058 76.78C645.939 74.74 644.379 73.14 642.38 71.98C640.421 70.78 638.182 70.18 635.663 70.18C633.184 70.18 630.945 70.78 628.946 71.98C626.946 73.14 625.367 74.74 624.207 76.78C623.048 78.78 622.468 81.06 622.468 83.62C622.468 86.14 623.048 88.42 624.207 90.46C625.367 92.46 626.946 94.06 628.946 95.26C630.945 96.42 633.184 97 635.663 97Z" fill="white"/>
<path d="M672.291 100.36C669.172 100.36 666.373 99.62 663.894 98.14C661.455 96.66 659.516 94.66 658.077 92.14C656.677 89.62 655.978 86.78 655.978 83.62C655.978 80.42 656.637 77.56 657.957 75.04C659.276 72.52 661.096 70.54 663.415 69.1C665.734 67.62 668.393 66.88 671.392 66.88C673.951 66.88 676.29 67.38 678.409 68.38C680.528 69.34 682.367 70.82 683.927 72.82C684.246 73.22 684.366 73.64 684.286 74.08C684.207 74.52 683.947 74.88 683.507 75.16C683.147 75.44 682.747 75.56 682.307 75.52C681.867 75.44 681.488 75.2 681.168 74.8C678.609 71.76 675.35 70.24 671.392 70.24C669.032 70.24 666.953 70.82 665.154 71.98C663.395 73.14 662.015 74.72 661.016 76.72C660.056 78.72 659.576 81.02 659.576 83.62C659.576 86.14 660.116 88.42 661.196 90.46C662.275 92.46 663.755 94.06 665.634 95.26C667.553 96.42 669.772 97 672.291 97C673.931 97 675.47 96.76 676.909 96.28C678.389 95.8 679.668 95.06 680.748 94.06C681.108 93.74 681.508 93.56 681.947 93.52C682.387 93.48 682.767 93.62 683.087 93.94C683.487 94.3 683.687 94.72 683.687 95.2C683.727 95.64 683.567 96.02 683.207 96.34C680.288 99.02 676.649 100.36 672.291 100.36Z" fill="white"/>
<path d="M692.73 100C692.21 100 691.77 99.84 691.41 99.52C691.09 99.16 690.93 98.72 690.93 98.2V68.98C690.93 68.42 691.09 67.98 691.41 67.66C691.77 67.34 692.21 67.18 692.73 67.18C693.289 67.18 693.729 67.34 694.049 67.66C694.369 67.98 694.529 68.42 694.529 68.98V98.2C694.529 98.72 694.369 99.16 694.049 99.52C693.729 99.84 693.289 100 692.73 100ZM692.67 60.28C691.91 60.28 691.25 60.02 690.69 59.5C690.171 58.94 689.911 58.26 689.911 57.46C689.911 56.54 690.191 55.86 690.75 55.42C691.35 54.94 692.01 54.7 692.73 54.7C693.409 54.7 694.029 54.94 694.589 55.42C695.189 55.86 695.489 56.54 695.489 57.46C695.489 58.26 695.209 58.94 694.649 59.5C694.129 60.02 693.469 60.28 692.67 60.28Z" fill="white"/>
<path d="M717.936 100.36C714.737 100.36 711.858 99.64 709.299 98.2C706.78 96.72 704.781 94.72 703.302 92.2C701.862 89.64 701.143 86.78 701.143 83.62C701.143 80.42 701.862 77.56 703.302 75.04C704.781 72.48 706.78 70.48 709.299 69.04C711.858 67.56 714.737 66.82 717.936 66.82C721.135 66.82 723.994 67.56 726.513 69.04C729.032 70.48 731.011 72.48 732.45 75.04C733.93 77.56 734.67 80.42 734.67 83.62V98.2C734.67 98.72 734.51 99.16 734.19 99.52C733.87 99.84 733.43 100 732.87 100C732.35 100 731.911 99.84 731.551 99.52C731.231 99.16 731.071 98.72 731.071 98.2V93.52C729.751 95.6 727.952 97.26 725.673 98.5C723.394 99.74 720.815 100.36 717.936 100.36ZM717.936 97C720.455 97 722.694 96.42 724.653 95.26C726.653 94.06 728.212 92.46 729.332 90.46C730.491 88.42 731.071 86.14 731.071 83.62C731.071 81.06 730.491 78.78 729.332 76.78C728.212 74.74 726.653 73.14 724.653 71.98C722.694 70.78 720.455 70.18 717.936 70.18C715.457 70.18 713.218 70.78 711.219 71.98C709.22 73.14 707.64 74.74 706.481 76.78C705.321 78.78 704.741 81.06 704.741 83.62C704.741 86.14 705.321 88.42 706.481 90.46C707.64 92.46 709.22 94.06 711.219 95.26C713.218 96.42 715.457 97 717.936 97Z" fill="white"/>
<path d="M753.485 100C751.286 99.96 749.326 99.46 747.607 98.5C745.888 97.5 744.548 96.14 743.589 94.42C742.629 92.66 742.149 90.68 742.149 88.48V71.62H737.471C736.991 71.62 736.591 71.48 736.272 71.2C735.992 70.88 735.852 70.48 735.852 70C735.852 69.52 735.992 69.14 736.272 68.86C736.591 68.54 736.991 68.38 737.471 68.38H742.149V58.6C742.149 58.04 742.309 57.6 742.629 57.28C742.989 56.92 743.429 56.74 743.949 56.74C744.508 56.74 744.948 56.92 745.268 57.28C745.628 57.6 745.808 58.04 745.808 58.6V68.38H753.725C754.205 68.38 754.584 68.54 754.864 68.86C755.184 69.14 755.344 69.52 755.344 70C755.344 70.48 755.184 70.88 754.864 71.2C754.584 71.48 754.205 71.62 753.725 71.62H745.808V88.48C745.808 90.8 746.528 92.7 747.967 94.18C749.406 95.62 751.266 96.34 753.545 96.34H754.864C755.424 96.34 755.864 96.52 756.184 96.88C756.544 97.2 756.724 97.64 756.724 98.2C756.724 98.72 756.544 99.16 756.184 99.52C755.864 99.84 755.424 100 754.864 100H753.485Z" fill="white"/>
<path d="M763.64 100C763.12 100 762.68 99.84 762.321 99.52C762.001 99.16 761.841 98.72 761.841 98.2V68.98C761.841 68.42 762.001 67.98 762.321 67.66C762.68 67.34 763.12 67.18 763.64 67.18C764.2 67.18 764.64 67.34 764.96 67.66C765.279 67.98 765.439 68.42 765.439 68.98V98.2C765.439 98.72 765.279 99.16 764.96 99.52C764.64 99.84 764.2 100 763.64 100ZM763.58 60.28C762.82 60.28 762.161 60.02 761.601 59.5C761.081 58.94 760.821 58.26 760.821 57.46C760.821 56.54 761.101 55.86 761.661 55.42C762.261 54.94 762.92 54.7 763.64 54.7C764.32 54.7 764.94 54.94 765.499 55.42C766.099 55.86 766.399 56.54 766.399 57.46C766.399 58.26 766.119 58.94 765.559 59.5C765.039 60.02 764.38 60.28 763.58 60.28Z" fill="white"/>
<path d="M788.847 100.36C785.648 100.36 782.769 99.64 780.21 98.2C777.691 96.72 775.692 94.72 774.212 92.2C772.773 89.64 772.053 86.78 772.053 83.62C772.053 80.42 772.773 77.56 774.212 75.04C775.692 72.48 777.691 70.48 780.21 69.04C782.769 67.56 785.648 66.82 788.847 66.82C792.045 66.82 794.904 67.56 797.423 69.04C799.942 70.48 801.921 72.48 803.361 75.04C804.84 77.56 805.58 80.42 805.58 83.62C805.58 86.78 804.84 89.64 803.361 92.2C801.921 94.72 799.942 96.72 797.423 98.2C794.904 99.64 792.045 100.36 788.847 100.36ZM788.847 97C791.366 97 793.605 96.42 795.564 95.26C797.563 94.06 799.123 92.46 800.242 90.46C801.402 88.42 801.981 86.14 801.981 83.62C801.981 81.06 801.402 78.78 800.242 76.78C799.123 74.74 797.563 73.14 795.564 71.98C793.605 70.78 791.366 70.18 788.847 70.18C786.368 70.18 784.128 70.78 782.129 71.98C780.13 73.14 778.551 74.74 777.391 76.78C776.232 78.78 775.652 81.06 775.652 83.62C775.652 86.14 776.232 88.42 777.391 90.46C778.551 92.46 780.13 94.06 782.129 95.26C784.128 96.42 786.368 97 788.847 97Z" fill="white"/>
<path d="M812.76 100C812.24 100 811.8 99.84 811.44 99.52C811.12 99.16 810.961 98.72 810.961 98.2V68.98C810.961 68.42 811.12 67.98 811.44 67.66C811.8 67.34 812.24 67.18 812.76 67.18C813.32 67.18 813.759 67.34 814.079 67.66C814.399 67.98 814.559 68.42 814.559 68.98V72.1C815.879 70.46 817.518 69.16 819.477 68.2C821.476 67.24 823.636 66.76 825.955 66.76C828.833 66.76 831.413 67.36 833.692 68.56C836.011 69.72 837.83 71.44 839.149 73.72C840.469 75.96 841.129 78.74 841.129 82.06V98.2C841.129 98.72 840.949 99.16 840.589 99.52C840.269 99.84 839.849 100 839.329 100C838.81 100 838.37 99.84 838.01 99.52C837.69 99.16 837.53 98.72 837.53 98.2V82.06C837.53 79.42 837.01 77.24 835.971 75.52C834.971 73.8 833.592 72.52 831.832 71.68C830.113 70.8 828.154 70.36 825.955 70.36C823.795 70.36 821.856 70.78 820.137 71.62C818.418 72.42 817.058 73.54 816.059 74.98C815.059 76.42 814.559 78.04 814.559 79.84V98.2C814.559 98.72 814.399 99.16 814.079 99.52C813.759 99.84 813.32 100 812.76 100Z" fill="white"/>
<defs>
<filter id="filter0_dd_1354_115" x="26.7617" y="30.8928" width="107.195" height="96.6973" filterUnits="userSpaceOnUse" color-interpolation-filters="sRGB">
<feFlood flood-opacity="0" result="BackgroundImageFix"/>
<feColorMatrix in="SourceAlpha" type="matrix" values="0 0 0 0 0 0 0 0 0 0 0 0 0 0 0 0 0 0 127 0" result="hardAlpha"/>
<feOffset dx="-12"/>
<feGaussianBlur stdDeviation="6"/>
<feComposite in2="hardAlpha" operator="out"/>
<feColorMatrix type="matrix" values="0 0 0 0 0.513397 0 0 0 0 0.0666029 0 0 0 0 0.0971292 0 0 0 0.16 0"/>
<feBlend mode="darken" in2="BackgroundImageFix" result="effect1_dropShadow_1354_115"/>
<feColorMatrix in="SourceAlpha" type="matrix" values="0 0 0 0 0 0 0 0 0 0 0 0 0 0 0 0 0 0 127 0" result="hardAlpha"/>
<feOffset dx="12"/>
<feGaussianBlur stdDeviation="6"/>
<feComposite in2="hardAlpha" operator="out"/>
<feColorMatrix type="matrix" values="0 0 0 0 0.0666029 0 0 0 0 0.288613 0 0 0 0 0.513397 0 0 0 0.16 0"/>
<feBlend mode="normal" in2="effect1_dropShadow_1354_115" result="effect2_dropShadow_1354_115"/>
<feBlend mode="normal" in="SourceGraphic" in2="effect2_dropShadow_1354_115" result="shape"/>
</filter>
<linearGradient id="paint0_linear_1354_115" x1="80.5921" y1="121.74" x2="149.159" y2="121.74" gradientUnits="userSpaceOnUse">
<stop stop-color="#4696E7"/>
<stop offset="1" stop-color="#467CE7"/>
</linearGradient>
<linearGradient id="paint1_linear_1354_115" x1="12.4066" y1="86.7188" x2="80.2026" y2="85.3136" gradientUnits="userSpaceOnUse">
<stop stop-color="#E74651"/>
<stop offset="1" stop-color="#E7466C"/>
</linearGradient>
<linearGradient id="paint2_linear_1354_115" x1="109.957" y1="121.25" x2="51.4646" y2="121.25" gradientUnits="userSpaceOnUse">
<stop stop-color="#8AC2F6"/>
<stop offset="0.513261" stop-color="#CCBCFA"/>
<stop offset="1" stop-color="#F68AA4"/>
</linearGradient>
</defs>
</svg>
