<svg width="24" height="24" viewBox="0 0 24 24" fill="none" xmlns="http://www.w3.org/2000/svg">
<path d="M13.7171 12.3636C13.7171 15.3487 11.318 17.7687 8.35866 17.7687C5.39933 17.7687 3 15.3482 3 12.3636C3 9.37899 5.39915 6.95833 8.35866 6.95833C11.3182 6.95833 13.7171 9.37844 13.7171 12.3636Z" fill="white"/>
<path d="M19.596 12.3636C19.596 15.1735 18.3964 17.4522 16.9166 17.4522C15.4369 17.4522 14.2373 15.1735 14.2373 12.3636C14.2373 9.55373 15.4367 7.27497 16.9165 7.27497C18.3962 7.27497 19.5958 9.553 19.5958 12.3636" fill="white"/>
<path d="M22.0002 12.3636C22.0002 14.8806 21.5784 16.9222 21.0579 16.9222C20.5374 16.9222 20.1157 14.8811 20.1157 12.3636C20.1157 9.84609 20.5375 7.80498 21.0579 7.80498C21.5782 7.80498 22.0002 9.8459 22.0002 12.3636Z" fill="white"/>
</svg>
