<svg width="259" height="160" viewBox="0 0 259 160" fill="none" xmlns="http://www.w3.org/2000/svg">
<path d="M16.0773 72.5786C19.9924 74.5584 21.9998 78.3704 21.9998 79.8507C21.9998 81.3298 19.9957 85.1368 16.0868 87.118C15.8778 87.0126 15.6742 86.9019 15.4761 86.7867C17.0753 87.7168 19.0293 88.348 21.3301 88.348C26.032 88.348 29.8436 84.5415 29.8436 79.8459C29.8436 75.1503 26.032 71.3438 21.3301 71.3438C19.31 71.3438 17.5573 71.8303 16.0773 72.5786Z" fill="#0B193E"/>
<path d="M16.0774 72.5786C14.5977 71.8303 12.8454 71.3438 10.826 71.3438C6.12413 71.3438 2.3125 75.1524 2.3125 79.8507C2.3125 84.549 6.12413 88.3576 10.826 88.3576C13.1268 88.3576 15.0807 87.7261 16.68 86.7954C16.4875 86.9075 16.2898 87.0152 16.087 87.118C12.1665 85.1405 10.1563 81.3264 10.1563 79.8459C10.1563 78.3666 12.1632 74.5574 16.0774 72.5786Z" fill="#0B193E"/>
<path d="M16.087 87.1181C19.9958 85.1369 22 81.3299 22 79.8507C22 78.3704 19.9926 74.5584 16.0774 72.5786C12.1632 74.5575 10.1562 78.3666 10.1562 79.8459C10.1562 81.3265 12.1665 85.1406 16.087 87.1181Z" fill="url(#paint0_linear_2450_1200)"/>
<line x1="32" y1="79.5" x2="99" y2="79.5" stroke="white"/>
<path d="M99 80C99 35.8172 134.817 0 179 0V0C223.183 0 259 35.8172 259 80V80C259 124.183 223.183 160 179 160V160C134.817 160 99 124.183 99 80V80Z" fill="white"/>
<path d="M168.824 72.18C166.952 72.18 165.248 71.82 163.712 71.1C162.2 70.356 160.892 69.372 159.788 68.148C158.708 66.924 157.868 65.544 157.268 64.008C156.668 62.448 156.368 60.852 156.368 59.22C156.368 57.516 156.68 55.896 157.304 54.36C157.928 52.8 158.804 51.42 159.932 50.22C161.06 48.996 162.38 48.036 163.892 47.34C165.428 46.62 167.108 46.26 168.932 46.26C170.78 46.26 172.46 46.632 173.972 47.376C175.508 48.12 176.816 49.116 177.896 50.364C179 51.612 179.84 53.016 180.416 54.576C181.016 56.112 181.316 57.684 181.316 59.292C181.316 60.924 181.016 62.508 180.416 64.044C179.84 65.556 179.024 66.9 177.968 68.076L181.46 72H176.78L175.268 70.344C174.356 70.92 173.348 71.376 172.244 71.712C171.164 72.024 170.024 72.18 168.824 72.18ZM168.86 67.788C169.508 67.788 170.108 67.716 170.66 67.572C171.236 67.404 171.764 67.188 172.244 66.924L168.356 62.532H173.036L174.8 64.512C175.28 63.744 175.652 62.904 175.916 61.992C176.18 61.08 176.312 60.156 176.312 59.22C176.312 57.732 176.012 56.34 175.412 55.044C174.812 53.748 173.948 52.692 172.82 51.876C171.716 51.06 170.396 50.652 168.86 50.652C167.252 50.652 165.896 51.072 164.792 51.912C163.688 52.752 162.848 53.832 162.272 55.152C161.696 56.472 161.408 57.828 161.408 59.22C161.408 60.708 161.696 62.1 162.272 63.396C162.872 64.692 163.724 65.748 164.828 66.564C165.956 67.38 167.3 67.788 168.86 67.788ZM183.796 72C183.796 70.584 183.952 69.324 184.264 68.22C184.6 67.116 185.176 66.12 185.992 65.232C186.808 64.344 187.96 63.48 189.448 62.64C190.768 61.944 191.872 61.356 192.76 60.876C193.648 60.396 194.32 59.94 194.776 59.508C195.256 59.052 195.496 58.524 195.496 57.924C195.496 57.204 195.208 56.592 194.632 56.088C194.056 55.56 193.24 55.296 192.184 55.296C191.032 55.296 190.036 55.572 189.196 56.124C188.38 56.676 187.672 57.312 187.072 58.032L184.012 54.504C184.444 54.048 185.092 53.556 185.956 53.028C186.82 52.5 187.852 52.044 189.052 51.66C190.252 51.276 191.572 51.084 193.012 51.084C195.46 51.084 197.356 51.66 198.7 52.812C200.068 53.94 200.752 55.404 200.752 57.204C200.752 58.332 200.488 59.292 199.96 60.084C199.456 60.852 198.82 61.512 198.052 62.064C197.308 62.592 196.588 63.06 195.892 63.468C194.356 64.236 193.144 64.908 192.256 65.484C191.392 66.06 190.696 66.78 190.168 67.644H201.148V72H183.796Z" fill="#0A2942"/>
<path d="M143.294 114C143.294 112.741 143.433 111.621 143.71 110.64C144.009 109.659 144.521 108.773 145.246 107.984C145.971 107.195 146.995 106.427 148.318 105.68C149.491 105.061 150.473 104.539 151.262 104.112C152.051 103.685 152.649 103.28 153.054 102.896C153.481 102.491 153.694 102.021 153.694 101.488C153.694 100.848 153.438 100.304 152.926 99.856C152.414 99.3867 151.689 99.152 150.75 99.152C149.726 99.152 148.841 99.3973 148.094 99.888C147.369 100.379 146.739 100.944 146.206 101.584L143.486 98.448C143.87 98.0427 144.446 97.6053 145.214 97.136C145.982 96.6667 146.899 96.2613 147.966 95.92C149.033 95.5787 150.206 95.408 151.486 95.408C153.662 95.408 155.347 95.92 156.542 96.944C157.758 97.9467 158.366 99.248 158.366 100.848C158.366 101.851 158.131 102.704 157.662 103.408C157.214 104.091 156.649 104.677 155.966 105.168C155.305 105.637 154.665 106.053 154.046 106.416C152.681 107.099 151.603 107.696 150.814 108.208C150.046 108.72 149.427 109.36 148.958 110.128H158.718V114H143.294ZM178.221 104.624C178.221 106.501 177.858 108.176 177.133 109.648C176.429 111.099 175.447 112.24 174.189 113.072C172.951 113.904 171.543 114.32 169.965 114.32C168.386 114.32 166.967 113.904 165.709 113.072C164.471 112.24 163.49 111.099 162.765 109.648C162.061 108.176 161.709 106.501 161.709 104.624C161.709 102.747 162.061 101.083 162.765 99.632C163.49 98.16 164.471 97.008 165.709 96.176C166.967 95.3227 168.386 94.896 169.965 94.896C171.543 94.896 172.951 95.3227 174.189 96.176C175.447 97.008 176.429 98.16 177.133 99.632C177.858 101.083 178.221 102.747 178.221 104.624ZM173.901 104.624C173.901 102.917 173.527 101.531 172.781 100.464C172.055 99.376 171.117 98.832 169.965 98.832C168.77 98.832 167.81 99.376 167.085 100.464C166.359 101.531 165.997 102.917 165.997 104.624C165.997 106.331 166.359 107.717 167.085 108.784C167.81 109.851 168.77 110.384 169.965 110.384C171.117 110.384 172.055 109.851 172.781 108.784C173.527 107.717 173.901 106.331 173.901 104.624ZM181.013 114C181.013 112.741 181.152 111.621 181.429 110.64C181.728 109.659 182.24 108.773 182.965 107.984C183.69 107.195 184.714 106.427 186.037 105.68C187.21 105.061 188.192 104.539 188.981 104.112C189.77 103.685 190.368 103.28 190.773 102.896C191.2 102.491 191.413 102.021 191.413 101.488C191.413 100.848 191.157 100.304 190.645 99.856C190.133 99.3867 189.408 99.152 188.469 99.152C187.445 99.152 186.56 99.3973 185.813 99.888C185.088 100.379 184.458 100.944 183.925 101.584L181.205 98.448C181.589 98.0427 182.165 97.6053 182.933 97.136C183.701 96.6667 184.618 96.2613 185.685 95.92C186.752 95.5787 187.925 95.408 189.205 95.408C191.381 95.408 193.066 95.92 194.261 96.944C195.477 97.9467 196.085 99.248 196.085 100.848C196.085 101.851 195.85 102.704 195.381 103.408C194.933 104.091 194.368 104.677 193.685 105.168C193.024 105.637 192.384 106.053 191.765 106.416C190.4 107.099 189.322 107.696 188.533 108.208C187.765 108.72 187.146 109.36 186.677 110.128H196.437V114H181.013ZM199.075 114C199.075 112.741 199.214 111.621 199.491 110.64C199.79 109.659 200.302 108.773 201.027 107.984C201.753 107.195 202.777 106.427 204.099 105.68C205.273 105.061 206.254 104.539 207.043 104.112C207.833 103.685 208.43 103.28 208.835 102.896C209.262 102.491 209.475 102.021 209.475 101.488C209.475 100.848 209.219 100.304 208.707 99.856C208.195 99.3867 207.47 99.152 206.531 99.152C205.507 99.152 204.622 99.3973 203.875 99.888C203.15 100.379 202.521 100.944 201.987 101.584L199.267 98.448C199.651 98.0427 200.227 97.6053 200.995 97.136C201.763 96.6667 202.681 96.2613 203.747 95.92C204.814 95.5787 205.987 95.408 207.267 95.408C209.443 95.408 211.129 95.92 212.323 96.944C213.539 97.9467 214.147 99.248 214.147 100.848C214.147 101.851 213.913 102.704 213.443 103.408C212.995 104.091 212.43 104.677 211.747 105.168C211.086 105.637 210.446 106.053 209.827 106.416C208.462 107.099 207.385 107.696 206.595 108.208C205.827 108.72 205.209 109.36 204.739 110.128H214.499V114H199.075Z" fill="#0A2942"/>
<defs>
<linearGradient id="paint0_linear_2450_1200" x1="10.1563" y1="87.1181" x2="22" y2="87.1181" gradientUnits="userSpaceOnUse">
<stop stop-color="#467DE7"/>
<stop offset="1" stop-color="#DA46E7"/>
</linearGradient>
</defs>
</svg>
