<svg width="259" height="160" viewBox="0 0 259 160" fill="none" xmlns="http://www.w3.org/2000/svg">
<path d="M16.0773 72.5786C19.9924 74.5584 21.9998 78.3704 21.9998 79.8507C21.9998 81.3298 19.9957 85.1368 16.0868 87.118C15.8778 87.0126 15.6742 86.9019 15.4761 86.7867C17.0753 87.7168 19.0293 88.348 21.3301 88.348C26.032 88.348 29.8436 84.5415 29.8436 79.8459C29.8436 75.1503 26.032 71.3438 21.3301 71.3438C19.31 71.3438 17.5573 71.8303 16.0773 72.5786Z" fill="#0B193E"/>
<path d="M16.0774 72.5786C14.5977 71.8303 12.8454 71.3438 10.826 71.3438C6.12413 71.3438 2.3125 75.1524 2.3125 79.8507C2.3125 84.549 6.12413 88.3576 10.826 88.3576C13.1268 88.3576 15.0807 87.7261 16.68 86.7954C16.4875 86.9075 16.2898 87.0152 16.087 87.118C12.1665 85.1405 10.1563 81.3264 10.1563 79.8459C10.1563 78.3666 12.1632 74.5574 16.0774 72.5786Z" fill="#0B193E"/>
<path d="M16.087 87.1181C19.9958 85.1369 22 81.3299 22 79.8507C22 78.3704 19.9926 74.5584 16.0774 72.5786C12.1632 74.5575 10.1562 78.3666 10.1562 79.8459C10.1562 81.3265 12.1665 85.1406 16.087 87.1181Z" fill="url(#paint0_linear_2450_1198)"/>
<line x1="32" y1="79.5" x2="99" y2="79.5" stroke="white"/>
<path d="M99 80C99 35.8172 134.817 0 179 0V0C223.183 0 259 35.8172 259 80V80C259 124.183 223.183 160 179 160V160C134.817 160 99 124.183 99 80V80Z" fill="white"/>
<path d="M147.844 72V46.44H157.132C159.916 46.44 162.244 47.016 164.116 48.168C165.988 49.296 167.392 50.832 168.328 52.776C169.264 54.696 169.732 56.832 169.732 59.184C169.732 61.776 169.216 64.032 168.184 65.952C167.152 67.872 165.688 69.36 163.792 70.416C161.896 71.472 159.676 72 157.132 72H147.844ZM164.728 59.184C164.728 57.528 164.428 56.076 163.828 54.828C163.228 53.556 162.364 52.572 161.236 51.876C160.108 51.156 158.74 50.796 157.132 50.796H152.812V67.644H157.132C158.764 67.644 160.144 67.284 161.272 66.564C162.4 65.82 163.252 64.812 163.828 63.54C164.428 62.244 164.728 60.792 164.728 59.184ZM181.893 72.36C179.853 72.36 178.089 71.916 176.601 71.028C175.137 70.14 173.997 68.964 173.181 67.5C172.365 66.012 171.957 64.404 171.957 62.676C171.957 60.9 172.353 59.268 173.145 57.78C173.961 56.268 175.113 55.068 176.601 54.18C178.089 53.268 179.865 52.812 181.929 52.812C183.993 52.812 185.757 53.268 187.221 54.18C188.685 55.068 189.801 56.256 190.569 57.744C191.361 59.208 191.757 60.792 191.757 62.496C191.757 63.12 191.721 63.66 191.649 64.116H177.069C177.189 65.58 177.729 66.732 178.689 67.572C179.673 68.412 180.801 68.832 182.073 68.832C183.033 68.832 183.933 68.604 184.773 68.148C185.637 67.668 186.225 67.044 186.537 66.276L190.677 67.428C189.981 68.868 188.865 70.056 187.329 70.992C185.793 71.904 183.981 72.36 181.893 72.36ZM176.961 61.056H186.825C186.681 59.64 186.141 58.5 185.205 57.636C184.293 56.748 183.177 56.304 181.857 56.304C180.561 56.304 179.445 56.748 178.509 57.636C177.597 58.5 177.081 59.64 176.961 61.056ZM203.48 72.36C201.44 72.36 199.676 71.904 198.188 70.992C196.7 70.08 195.548 68.88 194.732 67.392C193.916 65.904 193.508 64.296 193.508 62.568C193.508 60.816 193.904 59.196 194.696 57.708C195.512 56.22 196.664 55.032 198.152 54.144C199.64 53.256 201.404 52.812 203.444 52.812C205.508 52.812 207.26 53.256 208.7 54.144C210.164 55.032 211.256 56.196 211.976 57.636L207.26 59.076C206.42 57.636 205.136 56.916 203.408 56.916C202.472 56.916 201.632 57.156 200.888 57.636C200.144 58.092 199.556 58.752 199.124 59.616C198.692 60.456 198.476 61.44 198.476 62.568C198.476 63.672 198.692 64.656 199.124 65.52C199.58 66.36 200.18 67.032 200.924 67.536C201.668 68.016 202.496 68.256 203.408 68.256C204.272 68.256 205.064 68.052 205.784 67.644C206.528 67.212 207.044 66.672 207.332 66.024L212.048 67.464C211.4 68.88 210.32 70.056 208.808 70.992C207.32 71.904 205.544 72.36 203.48 72.36Z" fill="#0A2942"/>
<path d="M144.419 114C144.419 112.741 144.558 111.621 144.835 110.64C145.134 109.659 145.646 108.773 146.371 107.984C147.096 107.195 148.12 106.427 149.443 105.68C150.616 105.061 151.598 104.539 152.387 104.112C153.176 103.685 153.774 103.28 154.179 102.896C154.606 102.491 154.819 102.021 154.819 101.488C154.819 100.848 154.563 100.304 154.051 99.856C153.539 99.3867 152.814 99.152 151.875 99.152C150.851 99.152 149.966 99.3973 149.219 99.888C148.494 100.379 147.864 100.944 147.331 101.584L144.611 98.448C144.995 98.0427 145.571 97.6053 146.339 97.136C147.107 96.6667 148.024 96.2613 149.091 95.92C150.158 95.5787 151.331 95.408 152.611 95.408C154.787 95.408 156.472 95.92 157.667 96.944C158.883 97.9467 159.491 99.248 159.491 100.848C159.491 101.851 159.256 102.704 158.787 103.408C158.339 104.091 157.774 104.677 157.091 105.168C156.43 105.637 155.79 106.053 155.171 106.416C153.806 107.099 152.728 107.696 151.939 108.208C151.171 108.72 150.552 109.36 150.083 110.128H159.843V114H144.419ZM179.346 104.624C179.346 106.501 178.983 108.176 178.258 109.648C177.554 111.099 176.572 112.24 175.314 113.072C174.076 113.904 172.668 114.32 171.09 114.32C169.511 114.32 168.092 113.904 166.834 113.072C165.596 112.24 164.615 111.099 163.89 109.648C163.186 108.176 162.834 106.501 162.834 104.624C162.834 102.747 163.186 101.083 163.89 99.632C164.615 98.16 165.596 97.008 166.834 96.176C168.092 95.3227 169.511 94.896 171.09 94.896C172.668 94.896 174.076 95.3227 175.314 96.176C176.572 97.008 177.554 98.16 178.258 99.632C178.983 101.083 179.346 102.747 179.346 104.624ZM175.026 104.624C175.026 102.917 174.652 101.531 173.906 100.464C173.18 99.376 172.242 98.832 171.09 98.832C169.895 98.832 168.935 99.376 168.21 100.464C167.484 101.531 167.122 102.917 167.122 104.624C167.122 106.331 167.484 107.717 168.21 108.784C168.935 109.851 169.895 110.384 171.09 110.384C172.242 110.384 173.18 109.851 173.906 108.784C174.652 107.717 175.026 106.331 175.026 104.624ZM182.138 114C182.138 112.741 182.277 111.621 182.554 110.64C182.853 109.659 183.365 108.773 184.09 107.984C184.815 107.195 185.839 106.427 187.162 105.68C188.335 105.061 189.317 104.539 190.106 104.112C190.895 103.685 191.493 103.28 191.898 102.896C192.325 102.491 192.538 102.021 192.538 101.488C192.538 100.848 192.282 100.304 191.77 99.856C191.258 99.3867 190.533 99.152 189.594 99.152C188.57 99.152 187.685 99.3973 186.938 99.888C186.213 100.379 185.583 100.944 185.05 101.584L182.33 98.448C182.714 98.0427 183.29 97.6053 184.058 97.136C184.826 96.6667 185.743 96.2613 186.81 95.92C187.877 95.5787 189.05 95.408 190.33 95.408C192.506 95.408 194.191 95.92 195.386 96.944C196.602 97.9467 197.21 99.248 197.21 100.848C197.21 101.851 196.975 102.704 196.506 103.408C196.058 104.091 195.493 104.677 194.81 105.168C194.149 105.637 193.509 106.053 192.89 106.416C191.525 107.099 190.447 107.696 189.658 108.208C188.89 108.72 188.271 109.36 187.802 110.128H197.562V114H182.138ZM214.024 110.128V114H201.032V110.128H205.576V100.432C205.32 100.752 204.883 101.093 204.264 101.456C203.667 101.819 203.006 102.128 202.28 102.384C201.576 102.64 200.947 102.768 200.392 102.768V98.768C200.776 98.768 201.235 98.6507 201.768 98.416C202.323 98.16 202.867 97.8613 203.4 97.52C203.955 97.1787 204.424 96.848 204.808 96.528C205.214 96.1867 205.47 95.92 205.576 95.728H209.96V110.128H214.024Z" fill="#0A2942"/>
<defs>
<linearGradient id="paint0_linear_2450_1198" x1="10.1563" y1="87.1181" x2="22" y2="87.1181" gradientUnits="userSpaceOnUse">
<stop stop-color="#467DE7"/>
<stop offset="1" stop-color="#DA46E7"/>
</linearGradient>
</defs>
</svg>
