<svg width="259" height="160" viewBox="0 0 259 160" fill="none" xmlns="http://www.w3.org/2000/svg">
<path d="M16.0773 72.5786C19.9924 74.5584 21.9998 78.3704 21.9998 79.8507C21.9998 81.3298 19.9957 85.1368 16.0868 87.118C15.8778 87.0126 15.6742 86.9019 15.4761 86.7867C17.0753 87.7168 19.0293 88.348 21.3301 88.348C26.032 88.348 29.8436 84.5415 29.8436 79.8459C29.8436 75.1503 26.032 71.3438 21.3301 71.3438C19.31 71.3438 17.5573 71.8303 16.0773 72.5786Z" fill="#0B193E"/>
<path d="M16.0774 72.5786C14.5977 71.8303 12.8454 71.3438 10.826 71.3438C6.12413 71.3438 2.3125 75.1524 2.3125 79.8507C2.3125 84.549 6.12413 88.3576 10.826 88.3576C13.1268 88.3576 15.0807 87.7261 16.68 86.7954C16.4875 86.9075 16.2898 87.0152 16.087 87.118C12.1665 85.1405 10.1563 81.3264 10.1563 79.8459C10.1563 78.3666 12.1632 74.5574 16.0774 72.5786Z" fill="#0B193E"/>
<path d="M16.087 87.1181C19.9958 85.1369 22 81.3299 22 79.8507C22 78.3704 19.9926 74.5584 16.0774 72.5786C12.1632 74.5575 10.1562 78.3666 10.1562 79.8459C10.1562 81.3265 12.1665 85.1406 16.087 87.1181Z" fill="url(#paint0_linear_2450_1188)"/>
<line x1="32" y1="79.5" x2="99" y2="79.5" stroke="white"/>
<path d="M99 80C99 35.8172 134.817 0 179 0V0C223.183 0 259 35.8172 259 80V80C259 124.183 223.183 160 179 160V160C134.817 160 99 124.183 99 80V80Z" fill="white"/>
<path d="M168.947 72.18C167.075 72.18 165.371 71.82 163.835 71.1C162.323 70.356 161.015 69.372 159.911 68.148C158.831 66.924 157.991 65.544 157.391 64.008C156.791 62.448 156.491 60.852 156.491 59.22C156.491 57.516 156.803 55.896 157.427 54.36C158.051 52.8 158.927 51.42 160.055 50.22C161.183 48.996 162.503 48.036 164.015 47.34C165.551 46.62 167.231 46.26 169.055 46.26C170.903 46.26 172.583 46.632 174.095 47.376C175.631 48.12 176.939 49.116 178.019 50.364C179.123 51.612 179.963 53.016 180.539 54.576C181.139 56.112 181.439 57.684 181.439 59.292C181.439 60.924 181.139 62.508 180.539 64.044C179.963 65.556 179.147 66.9 178.091 68.076L181.583 72H176.903L175.391 70.344C174.479 70.92 173.471 71.376 172.367 71.712C171.287 72.024 170.147 72.18 168.947 72.18ZM168.983 67.788C169.631 67.788 170.231 67.716 170.783 67.572C171.359 67.404 171.887 67.188 172.367 66.924L168.479 62.532H173.159L174.923 64.512C175.403 63.744 175.775 62.904 176.039 61.992C176.303 61.08 176.435 60.156 176.435 59.22C176.435 57.732 176.135 56.34 175.535 55.044C174.935 53.748 174.071 52.692 172.943 51.876C171.839 51.06 170.519 50.652 168.983 50.652C167.375 50.652 166.019 51.072 164.915 51.912C163.811 52.752 162.971 53.832 162.395 55.152C161.819 56.472 161.531 57.828 161.531 59.22C161.531 60.708 161.819 62.1 162.395 63.396C162.995 64.692 163.847 65.748 164.951 66.564C166.079 67.38 167.423 67.788 168.983 67.788ZM196.267 63.504C197.755 63.744 198.955 64.464 199.867 65.664C200.803 66.84 201.271 68.256 201.271 69.912C201.271 71.424 200.887 72.732 200.119 73.836C199.351 74.94 198.259 75.792 196.843 76.392C195.451 76.992 193.807 77.292 191.911 77.292C188.263 77.292 185.479 76.14 183.559 73.836L186.295 70.416C186.919 71.208 187.663 71.82 188.527 72.252C189.415 72.684 190.495 72.9 191.767 72.9C193.231 72.9 194.347 72.6 195.115 72C195.883 71.424 196.267 70.548 196.267 69.372C196.267 68.124 195.823 67.164 194.935 66.492C194.047 65.82 192.703 65.484 190.903 65.484H189.895V61.884H191.011C192.475 61.884 193.615 61.56 194.431 60.912C195.271 60.24 195.691 59.388 195.691 58.356C195.691 57.396 195.355 56.676 194.683 56.196C194.011 55.692 193.135 55.44 192.055 55.44C189.823 55.44 188.119 56.4 186.943 58.32L183.919 54.936C184.423 54.216 185.107 53.58 185.971 53.028C186.859 52.476 187.867 52.044 188.995 51.732C190.147 51.42 191.347 51.264 192.595 51.264C194.227 51.264 195.655 51.528 196.879 52.056C198.127 52.584 199.099 53.328 199.795 54.288C200.491 55.248 200.839 56.364 200.839 57.636C200.839 58.596 200.647 59.496 200.263 60.336C199.879 61.152 199.339 61.848 198.643 62.424C197.971 62.976 197.179 63.336 196.267 63.504Z" fill="#0A2942"/>
<path d="M143.294 114C143.294 112.741 143.433 111.621 143.71 110.64C144.009 109.659 144.521 108.773 145.246 107.984C145.971 107.195 146.995 106.427 148.318 105.68C149.491 105.061 150.473 104.539 151.262 104.112C152.051 103.685 152.649 103.28 153.054 102.896C153.481 102.491 153.694 102.021 153.694 101.488C153.694 100.848 153.438 100.304 152.926 99.856C152.414 99.3867 151.689 99.152 150.75 99.152C149.726 99.152 148.841 99.3973 148.094 99.888C147.369 100.379 146.739 100.944 146.206 101.584L143.486 98.448C143.87 98.0427 144.446 97.6053 145.214 97.136C145.982 96.6667 146.899 96.2613 147.966 95.92C149.033 95.5787 150.206 95.408 151.486 95.408C153.662 95.408 155.347 95.92 156.542 96.944C157.758 97.9467 158.366 99.248 158.366 100.848C158.366 101.851 158.131 102.704 157.662 103.408C157.214 104.091 156.649 104.677 155.966 105.168C155.305 105.637 154.665 106.053 154.046 106.416C152.681 107.099 151.603 107.696 150.814 108.208C150.046 108.72 149.427 109.36 148.958 110.128H158.718V114H143.294ZM178.221 104.624C178.221 106.501 177.858 108.176 177.133 109.648C176.429 111.099 175.447 112.24 174.189 113.072C172.951 113.904 171.543 114.32 169.965 114.32C168.386 114.32 166.967 113.904 165.709 113.072C164.471 112.24 163.49 111.099 162.765 109.648C162.061 108.176 161.709 106.501 161.709 104.624C161.709 102.747 162.061 101.083 162.765 99.632C163.49 98.16 164.471 97.008 165.709 96.176C166.967 95.3227 168.386 94.896 169.965 94.896C171.543 94.896 172.951 95.3227 174.189 96.176C175.447 97.008 176.429 98.16 177.133 99.632C177.858 101.083 178.221 102.747 178.221 104.624ZM173.901 104.624C173.901 102.917 173.527 101.531 172.781 100.464C172.055 99.376 171.117 98.832 169.965 98.832C168.77 98.832 167.81 99.376 167.085 100.464C166.359 101.531 165.997 102.917 165.997 104.624C165.997 106.331 166.359 107.717 167.085 108.784C167.81 109.851 168.77 110.384 169.965 110.384C171.117 110.384 172.055 109.851 172.781 108.784C173.527 107.717 173.901 106.331 173.901 104.624ZM181.013 114C181.013 112.741 181.152 111.621 181.429 110.64C181.728 109.659 182.24 108.773 182.965 107.984C183.69 107.195 184.714 106.427 186.037 105.68C187.21 105.061 188.192 104.539 188.981 104.112C189.77 103.685 190.368 103.28 190.773 102.896C191.2 102.491 191.413 102.021 191.413 101.488C191.413 100.848 191.157 100.304 190.645 99.856C190.133 99.3867 189.408 99.152 188.469 99.152C187.445 99.152 186.56 99.3973 185.813 99.888C185.088 100.379 184.458 100.944 183.925 101.584L181.205 98.448C181.589 98.0427 182.165 97.6053 182.933 97.136C183.701 96.6667 184.618 96.2613 185.685 95.92C186.752 95.5787 187.925 95.408 189.205 95.408C191.381 95.408 193.066 95.92 194.261 96.944C195.477 97.9467 196.085 99.248 196.085 100.848C196.085 101.851 195.85 102.704 195.381 103.408C194.933 104.091 194.368 104.677 193.685 105.168C193.024 105.637 192.384 106.053 191.765 106.416C190.4 107.099 189.322 107.696 188.533 108.208C187.765 108.72 187.146 109.36 186.677 110.128H196.437V114H181.013ZM199.075 114C199.075 112.741 199.214 111.621 199.491 110.64C199.79 109.659 200.302 108.773 201.027 107.984C201.753 107.195 202.777 106.427 204.099 105.68C205.273 105.061 206.254 104.539 207.043 104.112C207.833 103.685 208.43 103.28 208.835 102.896C209.262 102.491 209.475 102.021 209.475 101.488C209.475 100.848 209.219 100.304 208.707 99.856C208.195 99.3867 207.47 99.152 206.531 99.152C205.507 99.152 204.622 99.3973 203.875 99.888C203.15 100.379 202.521 100.944 201.987 101.584L199.267 98.448C199.651 98.0427 200.227 97.6053 200.995 97.136C201.763 96.6667 202.681 96.2613 203.747 95.92C204.814 95.5787 205.987 95.408 207.267 95.408C209.443 95.408 211.129 95.92 212.323 96.944C213.539 97.9467 214.147 99.248 214.147 100.848C214.147 101.851 213.913 102.704 213.443 103.408C212.995 104.091 212.43 104.677 211.747 105.168C211.086 105.637 210.446 106.053 209.827 106.416C208.462 107.099 207.385 107.696 206.595 108.208C205.827 108.72 205.209 109.36 204.739 110.128H214.499V114H199.075Z" fill="#0A2942"/>
<defs>
<linearGradient id="paint0_linear_2450_1188" x1="10.1563" y1="87.1181" x2="22" y2="87.1181" gradientUnits="userSpaceOnUse">
<stop stop-color="#467DE7"/>
<stop offset="1" stop-color="#DA46E7"/>
</linearGradient>
</defs>
</svg>
