<svg width="72" height="64" viewBox="0 0 72 64" fill="none" xmlns="http://www.w3.org/2000/svg">
<path d="M36.1545 17.1571C43.9848 21.1167 47.9997 28.7407 47.9997 31.7014C47.9997 34.6597 43.9913 42.2737 36.1736 46.236C35.7556 46.0251 35.3484 45.8039 34.9521 45.5734C38.1507 47.4336 42.0587 48.696 46.6602 48.696C56.0639 48.696 63.6872 41.083 63.6872 31.6918C63.6872 22.3006 56.0639 14.6875 46.6602 14.6875C42.6201 14.6875 39.1146 15.6606 36.1545 17.1571Z" fill="url(#paint0_linear_742_287)"/>
<path d="M36.1549 17.1571C33.1954 15.6606 29.6909 14.6875 25.652 14.6875C16.2483 14.6875 8.625 22.3049 8.625 31.7014C8.625 41.0979 16.2483 48.7153 25.652 48.7153C30.2535 48.7153 34.1615 47.4522 37.36 45.5909C36.975 45.815 36.5796 46.0304 36.1739 46.236C28.3329 42.281 24.3125 34.6528 24.3125 31.6918C24.3125 28.7331 28.3264 21.1149 36.1549 17.1571Z" fill="url(#paint1_linear_742_287)"/>
<g filter="url(#filter0_dd_742_287)">
<path d="M36.1739 46.2361C43.9917 42.2738 48 34.6598 48 31.7015C48 28.7408 43.9851 21.1168 36.1549 17.1572C28.3264 21.115 24.3125 28.7332 24.3125 31.6919C24.3125 34.6529 28.3329 42.2811 36.1739 46.2361Z" fill="url(#paint2_linear_742_287)"/>
</g>
<defs>
<filter id="filter0_dd_742_287" x="0.3125" y="5.15723" width="71.6875" height="53.0789" filterUnits="userSpaceOnUse" color-interpolation-filters="sRGB">
<feFlood flood-opacity="0" result="BackgroundImageFix"/>
<feColorMatrix in="SourceAlpha" type="matrix" values="0 0 0 0 0 0 0 0 0 0 0 0 0 0 0 0 0 0 127 0" result="hardAlpha"/>
<feOffset dx="-12"/>
<feGaussianBlur stdDeviation="6"/>
<feComposite in2="hardAlpha" operator="out"/>
<feColorMatrix type="matrix" values="0 0 0 0 0.513397 0 0 0 0 0.0666029 0 0 0 0 0.0971292 0 0 0 0.16 0"/>
<feBlend mode="darken" in2="BackgroundImageFix" result="effect1_dropShadow_742_287"/>
<feColorMatrix in="SourceAlpha" type="matrix" values="0 0 0 0 0 0 0 0 0 0 0 0 0 0 0 0 0 0 127 0" result="hardAlpha"/>
<feOffset dx="12"/>
<feGaussianBlur stdDeviation="6"/>
<feComposite in2="hardAlpha" operator="out"/>
<feColorMatrix type="matrix" values="0 0 0 0 0.0666029 0 0 0 0 0.288613 0 0 0 0 0.513397 0 0 0 0.16 0"/>
<feBlend mode="normal" in2="effect1_dropShadow_742_287" result="effect2_dropShadow_742_287"/>
<feBlend mode="normal" in="SourceGraphic" in2="effect2_dropShadow_742_287" result="shape"/>
</filter>
<linearGradient id="paint0_linear_742_287" x1="36.2497" y1="48.696" x2="63.6872" y2="48.696" gradientUnits="userSpaceOnUse">
<stop stop-color="#4696E7"/>
<stop offset="1" stop-color="#467CE7"/>
</linearGradient>
<linearGradient id="paint1_linear_742_287" x1="8.96473" y1="34.6875" x2="36.0938" y2="34.125" gradientUnits="userSpaceOnUse">
<stop stop-color="#E74651"/>
<stop offset="1" stop-color="#E7466C"/>
</linearGradient>
<linearGradient id="paint2_linear_742_287" x1="48" y1="48.5001" x2="24.5938" y2="48.5001" gradientUnits="userSpaceOnUse">
<stop stop-color="#8AC2F6"/>
<stop offset="0.513261" stop-color="#CCBCFA"/>
<stop offset="1" stop-color="#F68AA4"/>
</linearGradient>
</defs>
</svg>
