<?xml version="1.0" standalone="no"?>
<!DOCTYPE svg PUBLIC "-//W3C//DTD SVG 20010904//EN"
 "http://www.w3.org/TR/2001/REC-SVG-20010904/DTD/svg10.dtd">
<svg version="1.0" xmlns="http://www.w3.org/2000/svg"
 width="576.000000pt" height="576.000000pt" viewBox="0 0 576.000000 576.000000"
 preserveAspectRatio="xMidYMid meet">
<metadata>
Created by potrace 1.14, written by Peter Selinger 2001-2017
</metadata>
<g transform="translate(0.000000,576.000000) scale(0.100000,-0.100000)"
fill="#000000" stroke="none">
<path d="M1977 4264 c-1 -1 -36 -5 -77 -8 -68 -6 -115 -12 -115 -16 0 -1 -7
-3 -15 -5 -8 -2 -26 -6 -40 -9 -49 -10 -66 -15 -125 -36 -33 -11 -93 -36 -133
-55 -40 -19 -77 -35 -83 -35 -5 0 -9 -4 -9 -9 0 -5 -8 -11 -17 -15 -20 -6 -46
-22 -84 -51 -14 -11 -36 -27 -49 -35 -76 -51 -256 -237 -289 -298 -6 -11 -17
-26 -24 -34 -7 -7 -26 -39 -42 -70 -16 -31 -32 -55 -36 -53 -3 2 -6 -2 -6 -10
0 -8 -9 -34 -20 -57 -18 -36 -29 -63 -38 -88 -1 -3 -4 -12 -8 -20 -10 -25 -46
-153 -52 -185 -16 -88 -20 -143 -20 -270 0 -141 4 -184 30 -310 7 -34 42 -150
54 -180 56 -133 159 -312 201 -350 11 -10 17 -22 14 -26 -3 -5 2 -9 10 -9 9 0
16 -4 16 -10 0 -22 171 -177 265 -240 28 -19 51 -37 53 -42 2 -4 12 -8 23 -8
10 0 19 -4 19 -8 0 -4 20 -16 45 -26 25 -11 45 -22 45 -26 0 -4 6 -7 13 -7 6
0 33 -9 58 -21 57 -26 213 -72 245 -72 12 0 25 -4 28 -8 3 -5 19 -7 35 -6 17
1 33 -1 35 -5 5 -7 335 -6 376 2 14 2 50 8 80 12 30 3 82 13 114 20 33 8 63
12 67 9 4 -2 10 0 13 5 3 5 30 15 58 21 29 7 58 15 63 19 6 3 16 6 22 7 7 1
60 23 118 49 98 44 107 46 124 31 10 -9 23 -16 30 -16 6 0 31 -9 54 -21 23
-11 49 -22 57 -24 8 -2 35 -11 60 -20 25 -9 55 -19 68 -21 13 -3 42 -11 65
-18 23 -8 71 -19 107 -26 36 -7 74 -14 85 -16 111 -22 460 -22 526 0 7 3 30 7
49 10 50 7 204 59 275 91 33 16 63 27 68 27 4 -1 7 3 7 8 0 6 5 10 10 10 14 0
139 79 170 107 14 13 28 23 31 23 3 0 32 25 64 55 31 30 61 55 66 55 5 0 9 5
9 10 0 6 21 33 48 59 26 27 48 55 50 62 2 8 7 16 11 19 20 14 141 213 141 232
0 5 8 23 17 41 9 18 17 34 18 37 1 6 45 148 52 170 3 8 7 22 8 30 1 8 5 31 8
50 16 93 20 142 20 230 1 105 -8 214 -23 275 -5 22 -9 40 -9 40 3 0 -19 77
-38 135 -22 67 -83 201 -116 255 -81 134 -259 336 -334 380 -18 10 -29 23 -26
28 3 6 2 7 -4 4 -5 -3 -20 4 -34 16 -13 12 -44 33 -69 46 -127 68 -189 98
-230 110 -25 8 -49 17 -55 20 -5 3 -14 6 -20 7 -5 1 -37 9 -70 17 -113 30
-192 40 -320 41 -135 1 -281 -13 -405 -39 -14 -3 -38 -8 -54 -10 -15 -3 -44
-12 -62 -20 -19 -8 -34 -12 -34 -10 0 13 -280 -102 -292 -119 -4 -7 -9 -5 -13
5 -3 9 -12 16 -19 16 -8 0 -31 8 -52 18 -103 49 -299 110 -419 130 -5 1 -12 3
-15 4 -25 12 -393 35 -403 25z"/>
</g>
</svg>
